<mxfile host="app.diagrams.net" modified="2023-08-03T13:19:52.291Z" agent="Mozilla/5.0 (Windows NT 10.0; Win64; x64) AppleWebKit/537.36 (KHTML, like Gecko) Chrome/115.0.0.0 Safari/537.36" etag="bv403mklcMWwasWeJZKo" version="21.6.6" type="device">
  <diagram name="Page-1" id="WcEyCbnWBbrsYmlRcDpA">
    <mxGraphModel dx="2868" dy="1564" grid="1" gridSize="10" guides="1" tooltips="1" connect="1" arrows="1" fold="1" page="1" pageScale="1" pageWidth="850" pageHeight="1100" math="0" shadow="0">
      <root>
        <mxCell id="0" />
        <mxCell id="1" parent="0" />
        <mxCell id="4JkEVenRSaU8SXLg_JZd-1" value="&lt;font style=&quot;font-size: 18px;&quot;&gt;Admin&lt;/font&gt;" style="rounded=1;whiteSpace=wrap;html=1;" parent="1" vertex="1">
          <mxGeometry x="40" y="210" width="150" height="50" as="geometry" />
        </mxCell>
        <mxCell id="4JkEVenRSaU8SXLg_JZd-2" value="&lt;font style=&quot;font-size: 18px;&quot;&gt;Teacher&lt;/font&gt;" style="rounded=1;whiteSpace=wrap;html=1;" parent="1" vertex="1">
          <mxGeometry x="660" y="140" width="150" height="50" as="geometry" />
        </mxCell>
        <mxCell id="4JkEVenRSaU8SXLg_JZd-3" value="" style="rounded=1;whiteSpace=wrap;html=1;" parent="1" vertex="1">
          <mxGeometry x="330" y="140" width="180" height="150" as="geometry" />
        </mxCell>
        <mxCell id="4JkEVenRSaU8SXLg_JZd-4" value="" style="endArrow=none;html=1;rounded=0;exitX=0;exitY=0.25;exitDx=0;exitDy=0;entryX=1;entryY=0.25;entryDx=0;entryDy=0;" parent="1" source="4JkEVenRSaU8SXLg_JZd-3" target="4JkEVenRSaU8SXLg_JZd-3" edge="1">
          <mxGeometry width="50" height="50" relative="1" as="geometry">
            <mxPoint x="360" y="270" as="sourcePoint" />
            <mxPoint x="410" y="220" as="targetPoint" />
          </mxGeometry>
        </mxCell>
        <mxCell id="4JkEVenRSaU8SXLg_JZd-5" value="&lt;font style=&quot;font-size: 18px;&quot;&gt;0.0&lt;/font&gt;" style="text;html=1;strokeColor=none;fillColor=none;align=center;verticalAlign=middle;whiteSpace=wrap;rounded=0;" parent="1" vertex="1">
          <mxGeometry x="390" y="150" width="60" height="30" as="geometry" />
        </mxCell>
        <mxCell id="4JkEVenRSaU8SXLg_JZd-6" value="&lt;font style=&quot;font-size: 18px;&quot;&gt;School Management System&lt;/font&gt;" style="text;html=1;strokeColor=none;fillColor=none;align=center;verticalAlign=middle;whiteSpace=wrap;rounded=0;" parent="1" vertex="1">
          <mxGeometry x="372.5" y="200" width="95" height="60" as="geometry" />
        </mxCell>
        <mxCell id="4JkEVenRSaU8SXLg_JZd-9" value="&lt;font style=&quot;font-size: 18px;&quot;&gt;Student&lt;/font&gt;" style="rounded=1;whiteSpace=wrap;html=1;" parent="1" vertex="1">
          <mxGeometry x="660" y="290" width="150" height="50" as="geometry" />
        </mxCell>
        <mxCell id="4JkEVenRSaU8SXLg_JZd-10" value="" style="endArrow=classic;html=1;rounded=0;" parent="1" edge="1">
          <mxGeometry width="50" height="50" relative="1" as="geometry">
            <mxPoint x="510" y="171" as="sourcePoint" />
            <mxPoint x="660" y="171" as="targetPoint" />
          </mxGeometry>
        </mxCell>
        <mxCell id="4JkEVenRSaU8SXLg_JZd-11" value="&lt;font style=&quot;font-size: 14px;&quot;&gt;Student Attendance&lt;/font&gt;" style="text;html=1;align=center;verticalAlign=middle;resizable=0;points=[];autosize=1;strokeColor=none;fillColor=none;" parent="1" vertex="1">
          <mxGeometry x="510" y="140" width="150" height="30" as="geometry" />
        </mxCell>
        <mxCell id="4JkEVenRSaU8SXLg_JZd-12" value="&lt;font style=&quot;font-size: 14px;&quot;&gt;Student Marks&lt;/font&gt;" style="text;html=1;align=center;verticalAlign=middle;resizable=0;points=[];autosize=1;strokeColor=none;fillColor=none;" parent="1" vertex="1">
          <mxGeometry x="525" y="168" width="110" height="30" as="geometry" />
        </mxCell>
        <mxCell id="4JkEVenRSaU8SXLg_JZd-13" value="" style="endArrow=classic;html=1;rounded=0;entryX=1.017;entryY=0.591;entryDx=0;entryDy=0;entryPerimeter=0;" parent="1" edge="1">
          <mxGeometry width="50" height="50" relative="1" as="geometry">
            <mxPoint x="720" y="230" as="sourcePoint" />
            <mxPoint x="510.00000000000017" y="229.56999999999985" as="targetPoint" />
          </mxGeometry>
        </mxCell>
        <mxCell id="4JkEVenRSaU8SXLg_JZd-14" value="" style="endArrow=none;html=1;rounded=0;" parent="1" edge="1">
          <mxGeometry width="50" height="50" relative="1" as="geometry">
            <mxPoint x="720" y="230" as="sourcePoint" />
            <mxPoint x="720" y="230" as="targetPoint" />
            <Array as="points">
              <mxPoint x="720" y="190" />
            </Array>
          </mxGeometry>
        </mxCell>
        <mxCell id="4JkEVenRSaU8SXLg_JZd-15" value="&lt;font style=&quot;font-size: 14px;&quot;&gt;Teacher Information&lt;/font&gt;" style="text;html=1;align=center;verticalAlign=middle;resizable=0;points=[];autosize=1;strokeColor=none;fillColor=none;" parent="1" vertex="1">
          <mxGeometry x="515" y="200" width="150" height="30" as="geometry" />
        </mxCell>
        <mxCell id="4JkEVenRSaU8SXLg_JZd-16" value="" style="endArrow=classic;html=1;rounded=0;entryX=1.017;entryY=0.591;entryDx=0;entryDy=0;entryPerimeter=0;" parent="1" edge="1">
          <mxGeometry width="50" height="50" relative="1" as="geometry">
            <mxPoint x="720" y="270.43" as="sourcePoint" />
            <mxPoint x="510.0000000000002" y="269.99999999999983" as="targetPoint" />
          </mxGeometry>
        </mxCell>
        <mxCell id="4JkEVenRSaU8SXLg_JZd-18" value="" style="endArrow=none;html=1;rounded=0;" parent="1" edge="1">
          <mxGeometry width="50" height="50" relative="1" as="geometry">
            <mxPoint x="720" y="290" as="sourcePoint" />
            <mxPoint x="720" y="270" as="targetPoint" />
          </mxGeometry>
        </mxCell>
        <mxCell id="4JkEVenRSaU8SXLg_JZd-19" value="&lt;font style=&quot;font-size: 14px;&quot;&gt;Student Information&lt;/font&gt;" style="text;html=1;align=center;verticalAlign=middle;resizable=0;points=[];autosize=1;strokeColor=none;fillColor=none;" parent="1" vertex="1">
          <mxGeometry x="515" y="240" width="150" height="30" as="geometry" />
        </mxCell>
        <mxCell id="4JkEVenRSaU8SXLg_JZd-21" value="" style="endArrow=classic;html=1;rounded=0;" parent="1" edge="1">
          <mxGeometry width="50" height="50" relative="1" as="geometry">
            <mxPoint x="720" y="370" as="sourcePoint" />
            <mxPoint x="720" y="340" as="targetPoint" />
          </mxGeometry>
        </mxCell>
        <mxCell id="4JkEVenRSaU8SXLg_JZd-22" value="" style="endArrow=none;html=1;rounded=0;" parent="1" edge="1">
          <mxGeometry width="50" height="50" relative="1" as="geometry">
            <mxPoint x="480" y="370" as="sourcePoint" />
            <mxPoint x="720" y="370" as="targetPoint" />
          </mxGeometry>
        </mxCell>
        <mxCell id="4JkEVenRSaU8SXLg_JZd-23" value="" style="endArrow=none;html=1;rounded=0;entryX=0.83;entryY=0.994;entryDx=0;entryDy=0;entryPerimeter=0;" parent="1" target="4JkEVenRSaU8SXLg_JZd-3" edge="1">
          <mxGeometry width="50" height="50" relative="1" as="geometry">
            <mxPoint x="479" y="370" as="sourcePoint" />
            <mxPoint x="530" y="330" as="targetPoint" />
          </mxGeometry>
        </mxCell>
        <mxCell id="4JkEVenRSaU8SXLg_JZd-24" value="&lt;font style=&quot;font-size: 14px;&quot;&gt;Attendance and Marks Info&lt;/font&gt;" style="text;html=1;align=center;verticalAlign=middle;resizable=0;points=[];autosize=1;strokeColor=none;fillColor=none;" parent="1" vertex="1">
          <mxGeometry x="490" y="340" width="190" height="30" as="geometry" />
        </mxCell>
        <mxCell id="4JkEVenRSaU8SXLg_JZd-27" value="" style="endArrow=none;html=1;rounded=0;" parent="1" edge="1">
          <mxGeometry width="50" height="50" relative="1" as="geometry">
            <mxPoint x="120" y="170" as="sourcePoint" />
            <mxPoint x="330" y="170" as="targetPoint" />
          </mxGeometry>
        </mxCell>
        <mxCell id="4JkEVenRSaU8SXLg_JZd-28" value="" style="endArrow=classic;html=1;rounded=0;" parent="1" edge="1">
          <mxGeometry width="50" height="50" relative="1" as="geometry">
            <mxPoint x="120" y="170" as="sourcePoint" />
            <mxPoint x="120" y="210" as="targetPoint" />
          </mxGeometry>
        </mxCell>
        <mxCell id="4JkEVenRSaU8SXLg_JZd-29" value="" style="endArrow=classic;html=1;rounded=0;entryX=1;entryY=0.5;entryDx=0;entryDy=0;exitX=0;exitY=0.637;exitDx=0;exitDy=0;exitPerimeter=0;" parent="1" source="4JkEVenRSaU8SXLg_JZd-3" target="4JkEVenRSaU8SXLg_JZd-1" edge="1">
          <mxGeometry width="50" height="50" relative="1" as="geometry">
            <mxPoint x="240" y="290" as="sourcePoint" />
            <mxPoint x="290" y="240" as="targetPoint" />
          </mxGeometry>
        </mxCell>
        <mxCell id="4JkEVenRSaU8SXLg_JZd-30" value="" style="endArrow=none;html=1;rounded=0;" parent="1" edge="1">
          <mxGeometry width="50" height="50" relative="1" as="geometry">
            <mxPoint x="120" y="370" as="sourcePoint" />
            <mxPoint x="360" y="370" as="targetPoint" />
          </mxGeometry>
        </mxCell>
        <mxCell id="4JkEVenRSaU8SXLg_JZd-31" value="" style="endArrow=none;html=1;rounded=0;" parent="1" edge="1">
          <mxGeometry width="50" height="50" relative="1" as="geometry">
            <mxPoint x="360" y="370" as="sourcePoint" />
            <mxPoint x="360" y="290" as="targetPoint" />
          </mxGeometry>
        </mxCell>
        <mxCell id="4JkEVenRSaU8SXLg_JZd-32" value="" style="endArrow=classic;html=1;rounded=0;" parent="1" edge="1">
          <mxGeometry width="50" height="50" relative="1" as="geometry">
            <mxPoint x="120" y="370" as="sourcePoint" />
            <mxPoint x="120" y="260" as="targetPoint" />
          </mxGeometry>
        </mxCell>
        <mxCell id="4JkEVenRSaU8SXLg_JZd-33" value="&lt;font style=&quot;font-size: 14px;&quot;&gt;Teacher Info&lt;/font&gt;" style="text;html=1;align=center;verticalAlign=middle;resizable=0;points=[];autosize=1;strokeColor=none;fillColor=none;" parent="1" vertex="1">
          <mxGeometry x="155" y="140" width="100" height="30" as="geometry" />
        </mxCell>
        <mxCell id="4JkEVenRSaU8SXLg_JZd-34" value="&lt;font style=&quot;font-size: 14px;&quot;&gt;Student Info&lt;/font&gt;" style="text;html=1;align=center;verticalAlign=middle;resizable=0;points=[];autosize=1;strokeColor=none;fillColor=none;" parent="1" vertex="1">
          <mxGeometry x="185" y="210" width="100" height="30" as="geometry" />
        </mxCell>
        <mxCell id="4JkEVenRSaU8SXLg_JZd-36" value="&lt;font style=&quot;font-size: 14px;&quot;&gt;Attendance, Fees, Marks and Notice&lt;/font&gt;" style="text;html=1;align=center;verticalAlign=middle;resizable=0;points=[];autosize=1;strokeColor=none;fillColor=none;" parent="1" vertex="1">
          <mxGeometry x="115" y="340" width="250" height="30" as="geometry" />
        </mxCell>
        <mxCell id="1vtHcy_opoWdBIVPFyD_-1" value="&lt;span style=&quot;font-size: 18px;&quot;&gt;User&lt;/span&gt;" style="rounded=1;whiteSpace=wrap;html=1;" parent="1" vertex="1">
          <mxGeometry x="100" y="790" width="150" height="50" as="geometry" />
        </mxCell>
        <mxCell id="1vtHcy_opoWdBIVPFyD_-2" value="&lt;font style=&quot;font-size: 18px;&quot;&gt;&lt;br&gt;Manage Students&amp;nbsp;&lt;/font&gt;" style="rounded=1;whiteSpace=wrap;html=1;" parent="1" vertex="1">
          <mxGeometry x="355" y="530" width="180" height="120" as="geometry" />
        </mxCell>
        <mxCell id="1vtHcy_opoWdBIVPFyD_-6" value="&lt;font style=&quot;font-size: 18px;&quot;&gt;&lt;br&gt;Attendance and Fee&lt;/font&gt;" style="rounded=1;whiteSpace=wrap;html=1;" parent="1" vertex="1">
          <mxGeometry x="355" y="670" width="180" height="120" as="geometry" />
        </mxCell>
        <mxCell id="1vtHcy_opoWdBIVPFyD_-7" value="&lt;font style=&quot;font-size: 18px;&quot;&gt;&lt;br&gt;Manage Teachers&amp;nbsp;&lt;/font&gt;" style="rounded=1;whiteSpace=wrap;html=1;" parent="1" vertex="1">
          <mxGeometry x="355" y="810" width="180" height="120" as="geometry" />
        </mxCell>
        <mxCell id="1vtHcy_opoWdBIVPFyD_-8" value="&lt;font style=&quot;font-size: 18px;&quot;&gt;&lt;br&gt;Post Marks and notice&lt;/font&gt;" style="rounded=1;whiteSpace=wrap;html=1;" parent="1" vertex="1">
          <mxGeometry x="355" y="950" width="180" height="120" as="geometry" />
        </mxCell>
        <mxCell id="1vtHcy_opoWdBIVPFyD_-9" value="&lt;span style=&quot;font-size: 18px;&quot;&gt;Admin&lt;/span&gt;" style="rounded=1;whiteSpace=wrap;html=1;" parent="1" vertex="1">
          <mxGeometry x="655" y="790" width="150" height="50" as="geometry" />
        </mxCell>
        <mxCell id="1vtHcy_opoWdBIVPFyD_-11" value="" style="endArrow=classic;html=1;rounded=0;entryX=0.011;entryY=0.355;entryDx=0;entryDy=0;entryPerimeter=0;" parent="1" target="1vtHcy_opoWdBIVPFyD_-2" edge="1">
          <mxGeometry width="50" height="50" relative="1" as="geometry">
            <mxPoint x="120" y="570" as="sourcePoint" />
            <mxPoint x="280" y="595" as="targetPoint" />
          </mxGeometry>
        </mxCell>
        <mxCell id="1vtHcy_opoWdBIVPFyD_-12" value="" style="endArrow=none;html=1;rounded=0;" parent="1" edge="1">
          <mxGeometry width="50" height="50" relative="1" as="geometry">
            <mxPoint x="120" y="790" as="sourcePoint" />
            <mxPoint x="120" y="570" as="targetPoint" />
          </mxGeometry>
        </mxCell>
        <mxCell id="1vtHcy_opoWdBIVPFyD_-13" value="" style="endArrow=none;html=1;rounded=0;exitX=0.006;exitY=0.825;exitDx=0;exitDy=0;exitPerimeter=0;" parent="1" source="1vtHcy_opoWdBIVPFyD_-2" edge="1">
          <mxGeometry width="50" height="50" relative="1" as="geometry">
            <mxPoint x="350" y="630" as="sourcePoint" />
            <mxPoint x="170" y="630" as="targetPoint" />
          </mxGeometry>
        </mxCell>
        <mxCell id="1vtHcy_opoWdBIVPFyD_-14" value="" style="endArrow=classic;html=1;rounded=0;entryX=0.464;entryY=0.035;entryDx=0;entryDy=0;entryPerimeter=0;" parent="1" target="1vtHcy_opoWdBIVPFyD_-1" edge="1">
          <mxGeometry width="50" height="50" relative="1" as="geometry">
            <mxPoint x="170" y="630" as="sourcePoint" />
            <mxPoint x="370" y="800" as="targetPoint" />
          </mxGeometry>
        </mxCell>
        <mxCell id="1vtHcy_opoWdBIVPFyD_-15" value="" style="endArrow=none;html=1;rounded=0;" parent="1" edge="1">
          <mxGeometry width="50" height="50" relative="1" as="geometry">
            <mxPoint x="790" y="570" as="sourcePoint" />
            <mxPoint x="535" y="571" as="targetPoint" />
          </mxGeometry>
        </mxCell>
        <mxCell id="1vtHcy_opoWdBIVPFyD_-16" value="" style="endArrow=classic;html=1;rounded=0;" parent="1" edge="1">
          <mxGeometry width="50" height="50" relative="1" as="geometry">
            <mxPoint x="790" y="570" as="sourcePoint" />
            <mxPoint x="790" y="790" as="targetPoint" />
          </mxGeometry>
        </mxCell>
        <mxCell id="1vtHcy_opoWdBIVPFyD_-17" value="" style="endArrow=none;html=1;rounded=0;" parent="1" edge="1">
          <mxGeometry width="50" height="50" relative="1" as="geometry">
            <mxPoint x="720" y="790" as="sourcePoint" />
            <mxPoint x="720" y="630" as="targetPoint" />
          </mxGeometry>
        </mxCell>
        <mxCell id="1vtHcy_opoWdBIVPFyD_-18" value="" style="endArrow=classic;html=1;rounded=0;entryX=0.994;entryY=0.837;entryDx=0;entryDy=0;entryPerimeter=0;" parent="1" target="1vtHcy_opoWdBIVPFyD_-2" edge="1">
          <mxGeometry width="50" height="50" relative="1" as="geometry">
            <mxPoint x="720" y="630" as="sourcePoint" />
            <mxPoint x="540" y="630" as="targetPoint" />
          </mxGeometry>
        </mxCell>
        <mxCell id="1vtHcy_opoWdBIVPFyD_-19" value="" style="endArrow=none;html=1;rounded=0;exitX=0.006;exitY=0.825;exitDx=0;exitDy=0;exitPerimeter=0;" parent="1" edge="1">
          <mxGeometry width="50" height="50" relative="1" as="geometry">
            <mxPoint x="355" y="690" as="sourcePoint" />
            <mxPoint x="210" y="690" as="targetPoint" />
          </mxGeometry>
        </mxCell>
        <mxCell id="1vtHcy_opoWdBIVPFyD_-21" value="" style="endArrow=classic;html=1;rounded=0;" parent="1" edge="1">
          <mxGeometry width="50" height="50" relative="1" as="geometry">
            <mxPoint x="210" y="690" as="sourcePoint" />
            <mxPoint x="210" y="790" as="targetPoint" />
          </mxGeometry>
        </mxCell>
        <mxCell id="1vtHcy_opoWdBIVPFyD_-22" value="" style="endArrow=none;html=1;rounded=0;exitX=1.003;exitY=0.801;exitDx=0;exitDy=0;exitPerimeter=0;" parent="1" edge="1">
          <mxGeometry width="50" height="50" relative="1" as="geometry">
            <mxPoint x="535" y="990.1199999999999" as="sourcePoint" />
            <mxPoint x="759.46" y="990" as="targetPoint" />
          </mxGeometry>
        </mxCell>
        <mxCell id="tTbxIWZ7TnJ0TmE4Gb5t-1" value="" style="endArrow=classic;html=1;rounded=0;entryX=0.706;entryY=0.999;entryDx=0;entryDy=0;entryPerimeter=0;" parent="1" target="1vtHcy_opoWdBIVPFyD_-9" edge="1">
          <mxGeometry width="50" height="50" relative="1" as="geometry">
            <mxPoint x="760" y="990" as="sourcePoint" />
            <mxPoint x="670" y="910" as="targetPoint" />
          </mxGeometry>
        </mxCell>
        <mxCell id="tTbxIWZ7TnJ0TmE4Gb5t-2" value="" style="endArrow=none;html=1;rounded=0;" parent="1" edge="1">
          <mxGeometry width="50" height="50" relative="1" as="geometry">
            <mxPoint x="210" y="910" as="sourcePoint" />
            <mxPoint x="355.00000000000006" y="910" as="targetPoint" />
          </mxGeometry>
        </mxCell>
        <mxCell id="tTbxIWZ7TnJ0TmE4Gb5t-3" value="" style="endArrow=classic;html=1;rounded=0;" parent="1" edge="1">
          <mxGeometry width="50" height="50" relative="1" as="geometry">
            <mxPoint x="210" y="910" as="sourcePoint" />
            <mxPoint x="210" y="840" as="targetPoint" />
          </mxGeometry>
        </mxCell>
        <mxCell id="tTbxIWZ7TnJ0TmE4Gb5t-7" value="" style="endArrow=classic;html=1;rounded=0;entryX=1.002;entryY=0.58;entryDx=0;entryDy=0;entryPerimeter=0;" parent="1" target="1vtHcy_opoWdBIVPFyD_-7" edge="1">
          <mxGeometry width="50" height="50" relative="1" as="geometry">
            <mxPoint x="720" y="880" as="sourcePoint" />
            <mxPoint x="640" y="845" as="targetPoint" />
          </mxGeometry>
        </mxCell>
        <mxCell id="tTbxIWZ7TnJ0TmE4Gb5t-8" value="" style="endArrow=none;html=1;rounded=0;" parent="1" edge="1">
          <mxGeometry width="50" height="50" relative="1" as="geometry">
            <mxPoint x="720" y="880" as="sourcePoint" />
            <mxPoint x="720" y="840" as="targetPoint" />
          </mxGeometry>
        </mxCell>
        <mxCell id="tTbxIWZ7TnJ0TmE4Gb5t-9" value="" style="endArrow=none;html=1;rounded=0;" parent="1" edge="1">
          <mxGeometry width="50" height="50" relative="1" as="geometry">
            <mxPoint x="120" y="1040" as="sourcePoint" />
            <mxPoint x="355.00000000000006" y="1040" as="targetPoint" />
          </mxGeometry>
        </mxCell>
        <mxCell id="tTbxIWZ7TnJ0TmE4Gb5t-10" value="" style="endArrow=classic;html=1;rounded=0;" parent="1" edge="1">
          <mxGeometry width="50" height="50" relative="1" as="geometry">
            <mxPoint x="120" y="1040" as="sourcePoint" />
            <mxPoint x="120" y="840" as="targetPoint" />
          </mxGeometry>
        </mxCell>
        <mxCell id="tTbxIWZ7TnJ0TmE4Gb5t-11" value="" style="endArrow=none;html=1;rounded=0;" parent="1" edge="1">
          <mxGeometry width="50" height="50" relative="1" as="geometry">
            <mxPoint x="160" y="840" as="sourcePoint" />
            <mxPoint x="160.05" y="980" as="targetPoint" />
          </mxGeometry>
        </mxCell>
        <mxCell id="tTbxIWZ7TnJ0TmE4Gb5t-12" value="" style="endArrow=classic;html=1;rounded=0;entryX=0;entryY=0.25;entryDx=0;entryDy=0;" parent="1" target="1vtHcy_opoWdBIVPFyD_-8" edge="1">
          <mxGeometry width="50" height="50" relative="1" as="geometry">
            <mxPoint x="160" y="980" as="sourcePoint" />
            <mxPoint x="302.5" y="980.76" as="targetPoint" />
          </mxGeometry>
        </mxCell>
        <mxCell id="tTbxIWZ7TnJ0TmE4Gb5t-13" value="" style="endArrow=classic;html=1;rounded=0;entryX=0.706;entryY=0.999;entryDx=0;entryDy=0;entryPerimeter=0;" parent="1" edge="1">
          <mxGeometry width="50" height="50" relative="1" as="geometry">
            <mxPoint x="791" y="1040" as="sourcePoint" />
            <mxPoint x="791" y="840" as="targetPoint" />
          </mxGeometry>
        </mxCell>
        <mxCell id="tTbxIWZ7TnJ0TmE4Gb5t-14" value="" style="endArrow=none;html=1;rounded=0;exitX=1.003;exitY=0.801;exitDx=0;exitDy=0;exitPerimeter=0;" parent="1" edge="1">
          <mxGeometry width="50" height="50" relative="1" as="geometry">
            <mxPoint x="535" y="1040.12" as="sourcePoint" />
            <mxPoint x="790" y="1040" as="targetPoint" />
          </mxGeometry>
        </mxCell>
        <mxCell id="tTbxIWZ7TnJ0TmE4Gb5t-15" value="" style="endArrow=none;html=1;rounded=0;" parent="1" edge="1">
          <mxGeometry width="50" height="50" relative="1" as="geometry">
            <mxPoint x="240" y="790" as="sourcePoint" />
            <mxPoint x="240" y="760" as="targetPoint" />
          </mxGeometry>
        </mxCell>
        <mxCell id="tTbxIWZ7TnJ0TmE4Gb5t-16" value="" style="endArrow=classic;html=1;rounded=0;entryX=0;entryY=0.75;entryDx=0;entryDy=0;" parent="1" target="1vtHcy_opoWdBIVPFyD_-6" edge="1">
          <mxGeometry width="50" height="50" relative="1" as="geometry">
            <mxPoint x="240" y="760" as="sourcePoint" />
            <mxPoint x="350" y="760" as="targetPoint" />
          </mxGeometry>
        </mxCell>
        <mxCell id="tTbxIWZ7TnJ0TmE4Gb5t-19" value="" style="endArrow=none;html=1;rounded=0;" parent="1" edge="1">
          <mxGeometry width="50" height="50" relative="1" as="geometry">
            <mxPoint x="680" y="790" as="sourcePoint" />
            <mxPoint x="680" y="690" as="targetPoint" />
          </mxGeometry>
        </mxCell>
        <mxCell id="tTbxIWZ7TnJ0TmE4Gb5t-20" value="" style="endArrow=classic;html=1;rounded=0;entryX=1.002;entryY=0.58;entryDx=0;entryDy=0;entryPerimeter=0;" parent="1" edge="1">
          <mxGeometry width="50" height="50" relative="1" as="geometry">
            <mxPoint x="680" y="690" as="sourcePoint" />
            <mxPoint x="535" y="690" as="targetPoint" />
          </mxGeometry>
        </mxCell>
        <mxCell id="tTbxIWZ7TnJ0TmE4Gb5t-21" value="" style="endArrow=none;html=1;rounded=0;entryX=0.993;entryY=0.34;entryDx=0;entryDy=0;entryPerimeter=0;" parent="1" edge="1">
          <mxGeometry width="50" height="50" relative="1" as="geometry">
            <mxPoint x="355" y="560" as="sourcePoint" />
            <mxPoint x="533.7400000000002" y="560.8" as="targetPoint" />
          </mxGeometry>
        </mxCell>
        <mxCell id="tTbxIWZ7TnJ0TmE4Gb5t-22" value="" style="endArrow=none;html=1;rounded=0;entryX=0.993;entryY=0.34;entryDx=0;entryDy=0;entryPerimeter=0;" parent="1" edge="1">
          <mxGeometry width="50" height="50" relative="1" as="geometry">
            <mxPoint x="356.26" y="700" as="sourcePoint" />
            <mxPoint x="535.0000000000002" y="700.8" as="targetPoint" />
          </mxGeometry>
        </mxCell>
        <mxCell id="tTbxIWZ7TnJ0TmE4Gb5t-23" value="" style="endArrow=none;html=1;rounded=0;entryX=0.993;entryY=0.34;entryDx=0;entryDy=0;entryPerimeter=0;" parent="1" edge="1">
          <mxGeometry width="50" height="50" relative="1" as="geometry">
            <mxPoint x="356.26" y="840" as="sourcePoint" />
            <mxPoint x="535.0000000000002" y="840.8" as="targetPoint" />
          </mxGeometry>
        </mxCell>
        <mxCell id="tTbxIWZ7TnJ0TmE4Gb5t-25" value="" style="endArrow=none;html=1;rounded=0;" parent="1" edge="1">
          <mxGeometry width="50" height="50" relative="1" as="geometry">
            <mxPoint x="355" y="980" as="sourcePoint" />
            <mxPoint x="534" y="980" as="targetPoint" />
          </mxGeometry>
        </mxCell>
        <mxCell id="tTbxIWZ7TnJ0TmE4Gb5t-26" value="&lt;font style=&quot;font-size: 14px;&quot;&gt;Student&#39;s Information&lt;/font&gt;" style="text;html=1;align=center;verticalAlign=middle;resizable=0;points=[];autosize=1;strokeColor=none;fillColor=none;" parent="1" vertex="1">
          <mxGeometry x="125" y="540" width="160" height="30" as="geometry" />
        </mxCell>
        <mxCell id="tTbxIWZ7TnJ0TmE4Gb5t-27" value="&lt;font style=&quot;font-size: 14px;&quot;&gt;Select date&lt;/font&gt;" style="text;html=1;align=center;verticalAlign=middle;resizable=0;points=[];autosize=1;strokeColor=none;fillColor=none;" parent="1" vertex="1">
          <mxGeometry x="245" y="730" width="90" height="30" as="geometry" />
        </mxCell>
        <mxCell id="tTbxIWZ7TnJ0TmE4Gb5t-28" value="&lt;font style=&quot;font-size: 14px;&quot;&gt;View Attendance and Fee&lt;/font&gt;" style="text;html=1;align=center;verticalAlign=middle;resizable=0;points=[];autosize=1;strokeColor=none;fillColor=none;" parent="1" vertex="1">
          <mxGeometry x="180" y="660" width="180" height="30" as="geometry" />
        </mxCell>
        <mxCell id="tTbxIWZ7TnJ0TmE4Gb5t-29" value="&lt;font style=&quot;font-size: 14px;&quot;&gt;View Details&lt;/font&gt;" style="text;html=1;align=center;verticalAlign=middle;resizable=0;points=[];autosize=1;strokeColor=none;fillColor=none;" parent="1" vertex="1">
          <mxGeometry x="225" y="880" width="100" height="30" as="geometry" />
        </mxCell>
        <mxCell id="tTbxIWZ7TnJ0TmE4Gb5t-30" value="&lt;font style=&quot;font-size: 14px;&quot;&gt;View Notice&lt;/font&gt;" style="text;html=1;align=center;verticalAlign=middle;resizable=0;points=[];autosize=1;strokeColor=none;fillColor=none;" parent="1" vertex="1">
          <mxGeometry x="195" y="950" width="100" height="30" as="geometry" />
        </mxCell>
        <mxCell id="tTbxIWZ7TnJ0TmE4Gb5t-31" value="&lt;font style=&quot;font-size: 14px;&quot;&gt;View Marks&lt;/font&gt;" style="text;html=1;align=center;verticalAlign=middle;resizable=0;points=[];autosize=1;strokeColor=none;fillColor=none;" parent="1" vertex="1">
          <mxGeometry x="195" y="1008" width="100" height="30" as="geometry" />
        </mxCell>
        <mxCell id="tTbxIWZ7TnJ0TmE4Gb5t-32" value="&lt;font style=&quot;font-size: 14px;&quot;&gt;Enter Marks&lt;/font&gt;" style="text;html=1;align=center;verticalAlign=middle;resizable=0;points=[];autosize=1;strokeColor=none;fillColor=none;" parent="1" vertex="1">
          <mxGeometry x="550" y="960" width="100" height="30" as="geometry" />
        </mxCell>
        <mxCell id="tTbxIWZ7TnJ0TmE4Gb5t-34" value="&lt;font style=&quot;font-size: 14px;&quot;&gt;Teacher&#39;s Information&lt;/font&gt;" style="text;html=1;align=center;verticalAlign=middle;resizable=0;points=[];autosize=1;strokeColor=none;fillColor=none;" parent="1" vertex="1">
          <mxGeometry x="530" y="850" width="160" height="30" as="geometry" />
        </mxCell>
        <mxCell id="tTbxIWZ7TnJ0TmE4Gb5t-35" value="&lt;font style=&quot;font-size: 14px;&quot;&gt;Take Attendance&lt;/font&gt;" style="text;html=1;align=center;verticalAlign=middle;resizable=0;points=[];autosize=1;strokeColor=none;fillColor=none;" parent="1" vertex="1">
          <mxGeometry x="540" y="660" width="130" height="30" as="geometry" />
        </mxCell>
        <mxCell id="tTbxIWZ7TnJ0TmE4Gb5t-36" value="&lt;font style=&quot;font-size: 14px;&quot;&gt;Add Fee&lt;/font&gt;" style="text;html=1;align=center;verticalAlign=middle;resizable=0;points=[];autosize=1;strokeColor=none;fillColor=none;" parent="1" vertex="1">
          <mxGeometry x="555" y="690" width="80" height="30" as="geometry" />
        </mxCell>
        <mxCell id="tTbxIWZ7TnJ0TmE4Gb5t-37" value="&lt;font style=&quot;font-size: 14px;&quot;&gt;Student&#39;s Information&lt;/font&gt;" style="text;html=1;align=center;verticalAlign=middle;resizable=0;points=[];autosize=1;strokeColor=none;fillColor=none;" parent="1" vertex="1">
          <mxGeometry x="535" y="540" width="160" height="30" as="geometry" />
        </mxCell>
        <mxCell id="tTbxIWZ7TnJ0TmE4Gb5t-38" value="&lt;font style=&quot;font-size: 14px;&quot;&gt;Post Notice&lt;/font&gt;" style="text;html=1;align=center;verticalAlign=middle;resizable=0;points=[];autosize=1;strokeColor=none;fillColor=none;" parent="1" vertex="1">
          <mxGeometry x="550" y="1008" width="100" height="30" as="geometry" />
        </mxCell>
        <mxCell id="tTbxIWZ7TnJ0TmE4Gb5t-39" value="&lt;font style=&quot;font-size: 14px;&quot;&gt;Confirm and approve students&lt;/font&gt;" style="text;html=1;align=center;verticalAlign=middle;resizable=0;points=[];autosize=1;strokeColor=none;fillColor=none;" parent="1" vertex="1">
          <mxGeometry x="535" y="600" width="210" height="30" as="geometry" />
        </mxCell>
        <mxCell id="tTbxIWZ7TnJ0TmE4Gb5t-40" value="&lt;font style=&quot;font-size: 14px;&quot;&gt;Confirmed Information&lt;/font&gt;" style="text;html=1;align=center;verticalAlign=middle;resizable=0;points=[];autosize=1;strokeColor=none;fillColor=none;" parent="1" vertex="1">
          <mxGeometry x="160" y="600" width="160" height="30" as="geometry" />
        </mxCell>
        <mxCell id="tTbxIWZ7TnJ0TmE4Gb5t-41" value="Text" style="text;html=1;strokeColor=none;fillColor=none;align=center;verticalAlign=middle;whiteSpace=wrap;rounded=0;" parent="1" vertex="1">
          <mxGeometry x="610" y="630" width="60" height="30" as="geometry" />
        </mxCell>
        <mxCell id="tTbxIWZ7TnJ0TmE4Gb5t-42" value="1.1" style="text;html=1;align=center;verticalAlign=middle;resizable=0;points=[];autosize=1;strokeColor=none;fillColor=none;" parent="1" vertex="1">
          <mxGeometry x="420" y="530" width="40" height="30" as="geometry" />
        </mxCell>
        <mxCell id="tTbxIWZ7TnJ0TmE4Gb5t-43" value="1.2" style="text;html=1;align=center;verticalAlign=middle;resizable=0;points=[];autosize=1;strokeColor=none;fillColor=none;" parent="1" vertex="1">
          <mxGeometry x="420" y="670" width="40" height="30" as="geometry" />
        </mxCell>
        <mxCell id="tTbxIWZ7TnJ0TmE4Gb5t-44" value="1.3" style="text;html=1;align=center;verticalAlign=middle;resizable=0;points=[];autosize=1;strokeColor=none;fillColor=none;" parent="1" vertex="1">
          <mxGeometry x="420" y="810" width="40" height="30" as="geometry" />
        </mxCell>
        <mxCell id="tTbxIWZ7TnJ0TmE4Gb5t-45" value="1.4" style="text;html=1;align=center;verticalAlign=middle;resizable=0;points=[];autosize=1;strokeColor=none;fillColor=none;" parent="1" vertex="1">
          <mxGeometry x="420" y="950" width="40" height="30" as="geometry" />
        </mxCell>
        <mxCell id="tTbxIWZ7TnJ0TmE4Gb5t-46" value="&lt;b&gt;&lt;font style=&quot;font-size: 18px;&quot;&gt;&amp;nbsp;Level 0 DFD&lt;/font&gt;&lt;/b&gt;" style="text;html=1;align=center;verticalAlign=middle;resizable=0;points=[];autosize=1;strokeColor=none;fillColor=none;" parent="1" vertex="1">
          <mxGeometry x="360" y="400" width="130" height="40" as="geometry" />
        </mxCell>
        <mxCell id="tTbxIWZ7TnJ0TmE4Gb5t-47" value="&lt;span style=&quot;font-size: 18px;&quot;&gt;&lt;b&gt;Level 1 DFD&lt;/b&gt;&lt;/span&gt;" style="text;html=1;align=center;verticalAlign=middle;resizable=0;points=[];autosize=1;strokeColor=none;fillColor=none;" parent="1" vertex="1">
          <mxGeometry x="375" y="1100" width="130" height="40" as="geometry" />
        </mxCell>
        <mxCell id="tTbxIWZ7TnJ0TmE4Gb5t-48" value="&lt;b&gt;&lt;font style=&quot;font-size: 14px;&quot;&gt;Admin&lt;/font&gt;&lt;/b&gt;" style="shape=umlActor;verticalLabelPosition=bottom;verticalAlign=top;html=1;outlineConnect=0;" parent="1" vertex="1">
          <mxGeometry x="82.5" y="1590" width="65" height="100" as="geometry" />
        </mxCell>
        <mxCell id="tTbxIWZ7TnJ0TmE4Gb5t-49" value="&lt;span style=&quot;font-size: 14px;&quot;&gt;Registration&lt;/span&gt;" style="ellipse;whiteSpace=wrap;html=1;" parent="1" vertex="1">
          <mxGeometry x="337.5" y="1270" width="130" height="60" as="geometry" />
        </mxCell>
        <mxCell id="tTbxIWZ7TnJ0TmE4Gb5t-50" value="&lt;span style=&quot;font-size: 14px;&quot;&gt;Update&amp;nbsp;&lt;/span&gt;" style="ellipse;whiteSpace=wrap;html=1;" parent="1" vertex="1">
          <mxGeometry x="337.5" y="1350" width="130" height="60" as="geometry" />
        </mxCell>
        <mxCell id="tTbxIWZ7TnJ0TmE4Gb5t-51" value="&lt;span style=&quot;font-size: 14px;&quot;&gt;Delete&lt;/span&gt;" style="ellipse;whiteSpace=wrap;html=1;" parent="1" vertex="1">
          <mxGeometry x="335" y="1430" width="130" height="60" as="geometry" />
        </mxCell>
        <mxCell id="tTbxIWZ7TnJ0TmE4Gb5t-52" value="&lt;span style=&quot;font-size: 14px;&quot;&gt;Approve&lt;/span&gt;" style="ellipse;whiteSpace=wrap;html=1;" parent="1" vertex="1">
          <mxGeometry x="337.5" y="1510" width="130" height="60" as="geometry" />
        </mxCell>
        <mxCell id="tTbxIWZ7TnJ0TmE4Gb5t-53" value="&lt;span style=&quot;font-size: 14px;&quot;&gt;View&lt;/span&gt;" style="ellipse;whiteSpace=wrap;html=1;" parent="1" vertex="1">
          <mxGeometry x="337.5" y="1590" width="130" height="60" as="geometry" />
        </mxCell>
        <mxCell id="tTbxIWZ7TnJ0TmE4Gb5t-54" value="&lt;span style=&quot;font-size: 14px;&quot;&gt;Salary&lt;/span&gt;" style="ellipse;whiteSpace=wrap;html=1;" parent="1" vertex="1">
          <mxGeometry x="337.5" y="1670" width="130" height="60" as="geometry" />
        </mxCell>
        <mxCell id="tTbxIWZ7TnJ0TmE4Gb5t-55" value="&lt;span style=&quot;font-size: 14px;&quot;&gt;Notice&lt;/span&gt;" style="ellipse;whiteSpace=wrap;html=1;" parent="1" vertex="1">
          <mxGeometry x="337.5" y="1750" width="130" height="60" as="geometry" />
        </mxCell>
        <mxCell id="tTbxIWZ7TnJ0TmE4Gb5t-56" value="&lt;span style=&quot;font-size: 14px;&quot;&gt;Attendance&lt;/span&gt;" style="ellipse;whiteSpace=wrap;html=1;" parent="1" vertex="1">
          <mxGeometry x="337.5" y="1830" width="130" height="60" as="geometry" />
        </mxCell>
        <mxCell id="tTbxIWZ7TnJ0TmE4Gb5t-57" value="&lt;span style=&quot;font-size: 14px;&quot;&gt;Fee&lt;/span&gt;" style="ellipse;whiteSpace=wrap;html=1;" parent="1" vertex="1">
          <mxGeometry x="337.5" y="1910" width="130" height="60" as="geometry" />
        </mxCell>
        <mxCell id="tTbxIWZ7TnJ0TmE4Gb5t-58" value="&lt;span style=&quot;font-size: 14px;&quot;&gt;Student&#39;s Marks&lt;/span&gt;" style="ellipse;whiteSpace=wrap;html=1;" parent="1" vertex="1">
          <mxGeometry x="335" y="1990" width="130" height="60" as="geometry" />
        </mxCell>
        <mxCell id="tTbxIWZ7TnJ0TmE4Gb5t-67" value="&lt;b&gt;&lt;font style=&quot;font-size: 14px;&quot;&gt;Teacher&lt;/font&gt;&lt;/b&gt;" style="shape=umlActor;verticalLabelPosition=bottom;verticalAlign=top;html=1;outlineConnect=0;" parent="1" vertex="1">
          <mxGeometry x="655" y="1430" width="65" height="100" as="geometry" />
        </mxCell>
        <mxCell id="tTbxIWZ7TnJ0TmE4Gb5t-68" value="&lt;b&gt;&lt;font style=&quot;font-size: 14px;&quot;&gt;Student&lt;/font&gt;&lt;/b&gt;" style="shape=umlActor;verticalLabelPosition=bottom;verticalAlign=top;html=1;outlineConnect=0;" parent="1" vertex="1">
          <mxGeometry x="655" y="1720" width="65" height="100" as="geometry" />
        </mxCell>
        <mxCell id="tTbxIWZ7TnJ0TmE4Gb5t-82" value="" style="endArrow=none;html=1;rounded=0;exitX=0.962;exitY=0.739;exitDx=0;exitDy=0;exitPerimeter=0;" parent="1" source="tTbxIWZ7TnJ0TmE4Gb5t-49" edge="1">
          <mxGeometry width="50" height="50" relative="1" as="geometry">
            <mxPoint x="500" y="1570" as="sourcePoint" />
            <mxPoint x="650" y="1490" as="targetPoint" />
          </mxGeometry>
        </mxCell>
        <mxCell id="tTbxIWZ7TnJ0TmE4Gb5t-83" value="" style="endArrow=none;html=1;rounded=0;exitX=0.945;exitY=0.85;exitDx=0;exitDy=0;exitPerimeter=0;" parent="1" edge="1">
          <mxGeometry width="50" height="50" relative="1" as="geometry">
            <mxPoint x="465" y="1390" as="sourcePoint" />
            <mxPoint x="650" y="1490" as="targetPoint" />
          </mxGeometry>
        </mxCell>
        <mxCell id="tTbxIWZ7TnJ0TmE4Gb5t-84" value="" style="endArrow=none;html=1;rounded=0;exitX=1;exitY=1;exitDx=0;exitDy=0;" parent="1" source="tTbxIWZ7TnJ0TmE4Gb5t-51" edge="1">
          <mxGeometry width="50" height="50" relative="1" as="geometry">
            <mxPoint x="460" y="1470" as="sourcePoint" />
            <mxPoint x="650" y="1490" as="targetPoint" />
          </mxGeometry>
        </mxCell>
        <mxCell id="tTbxIWZ7TnJ0TmE4Gb5t-85" value="" style="endArrow=none;html=1;rounded=0;exitX=1;exitY=1;exitDx=0;exitDy=0;" parent="1" edge="1">
          <mxGeometry width="50" height="50" relative="1" as="geometry">
            <mxPoint x="467.5" y="1540" as="sourcePoint" />
            <mxPoint x="650" y="1490" as="targetPoint" />
          </mxGeometry>
        </mxCell>
        <mxCell id="tTbxIWZ7TnJ0TmE4Gb5t-86" value="" style="endArrow=none;html=1;rounded=0;exitX=1;exitY=0.5;exitDx=0;exitDy=0;" parent="1" source="tTbxIWZ7TnJ0TmE4Gb5t-53" edge="1">
          <mxGeometry width="50" height="50" relative="1" as="geometry">
            <mxPoint x="477.5" y="1550" as="sourcePoint" />
            <mxPoint x="650" y="1490" as="targetPoint" />
          </mxGeometry>
        </mxCell>
        <mxCell id="tTbxIWZ7TnJ0TmE4Gb5t-87" value="" style="endArrow=none;html=1;rounded=0;exitX=1;exitY=0.5;exitDx=0;exitDy=0;" parent="1" edge="1">
          <mxGeometry width="50" height="50" relative="1" as="geometry">
            <mxPoint x="467.5" y="1700" as="sourcePoint" />
            <mxPoint x="650" y="1490" as="targetPoint" />
          </mxGeometry>
        </mxCell>
        <mxCell id="tTbxIWZ7TnJ0TmE4Gb5t-88" value="" style="endArrow=none;html=1;rounded=0;exitX=1;exitY=0.5;exitDx=0;exitDy=0;" parent="1" edge="1">
          <mxGeometry width="50" height="50" relative="1" as="geometry">
            <mxPoint x="467.5" y="1780" as="sourcePoint" />
            <mxPoint x="650" y="1490" as="targetPoint" />
          </mxGeometry>
        </mxCell>
        <mxCell id="tTbxIWZ7TnJ0TmE4Gb5t-89" value="" style="endArrow=none;html=1;rounded=0;entryX=1;entryY=1;entryDx=0;entryDy=0;" parent="1" target="tTbxIWZ7TnJ0TmE4Gb5t-49" edge="1">
          <mxGeometry width="50" height="50" relative="1" as="geometry">
            <mxPoint x="650" y="1770" as="sourcePoint" />
            <mxPoint x="686.25" y="1520" as="targetPoint" />
          </mxGeometry>
        </mxCell>
        <mxCell id="tTbxIWZ7TnJ0TmE4Gb5t-91" value="" style="endArrow=none;html=1;rounded=0;entryX=1;entryY=1;entryDx=0;entryDy=0;" parent="1" edge="1">
          <mxGeometry width="50" height="50" relative="1" as="geometry">
            <mxPoint x="650" y="1770" as="sourcePoint" />
            <mxPoint x="448" y="1400" as="targetPoint" />
          </mxGeometry>
        </mxCell>
        <mxCell id="tTbxIWZ7TnJ0TmE4Gb5t-92" value="" style="endArrow=none;html=1;rounded=0;entryX=0.772;entryY=0.912;entryDx=0;entryDy=0;entryPerimeter=0;" parent="1" target="tTbxIWZ7TnJ0TmE4Gb5t-51" edge="1">
          <mxGeometry width="50" height="50" relative="1" as="geometry">
            <mxPoint x="650" y="1770" as="sourcePoint" />
            <mxPoint x="440" y="1480" as="targetPoint" />
          </mxGeometry>
        </mxCell>
        <mxCell id="tTbxIWZ7TnJ0TmE4Gb5t-93" value="" style="endArrow=none;html=1;rounded=0;entryX=0.928;entryY=0.794;entryDx=0;entryDy=0;entryPerimeter=0;" parent="1" target="tTbxIWZ7TnJ0TmE4Gb5t-53" edge="1">
          <mxGeometry width="50" height="50" relative="1" as="geometry">
            <mxPoint x="650" y="1770" as="sourcePoint" />
            <mxPoint x="465" y="1628.5" as="targetPoint" />
          </mxGeometry>
        </mxCell>
        <mxCell id="tTbxIWZ7TnJ0TmE4Gb5t-94" value="" style="endArrow=none;html=1;rounded=0;entryX=0.928;entryY=0.794;entryDx=0;entryDy=0;entryPerimeter=0;" parent="1" edge="1">
          <mxGeometry width="50" height="50" relative="1" as="geometry">
            <mxPoint x="650" y="1770" as="sourcePoint" />
            <mxPoint x="458" y="1794" as="targetPoint" />
          </mxGeometry>
        </mxCell>
        <mxCell id="tTbxIWZ7TnJ0TmE4Gb5t-95" value="" style="endArrow=none;html=1;rounded=0;entryX=1;entryY=0.5;entryDx=0;entryDy=0;" parent="1" target="tTbxIWZ7TnJ0TmE4Gb5t-56" edge="1">
          <mxGeometry width="50" height="50" relative="1" as="geometry">
            <mxPoint x="650" y="1770" as="sourcePoint" />
            <mxPoint x="468" y="1804" as="targetPoint" />
          </mxGeometry>
        </mxCell>
        <mxCell id="tTbxIWZ7TnJ0TmE4Gb5t-96" value="" style="endArrow=none;html=1;rounded=0;entryX=1;entryY=0.5;entryDx=0;entryDy=0;" parent="1" target="tTbxIWZ7TnJ0TmE4Gb5t-57" edge="1">
          <mxGeometry width="50" height="50" relative="1" as="geometry">
            <mxPoint x="650" y="1770" as="sourcePoint" />
            <mxPoint x="470" y="1930" as="targetPoint" />
          </mxGeometry>
        </mxCell>
        <mxCell id="tTbxIWZ7TnJ0TmE4Gb5t-97" value="" style="endArrow=none;html=1;rounded=0;entryX=0.964;entryY=0.337;entryDx=0;entryDy=0;entryPerimeter=0;" parent="1" target="tTbxIWZ7TnJ0TmE4Gb5t-58" edge="1">
          <mxGeometry width="50" height="50" relative="1" as="geometry">
            <mxPoint x="650" y="1770" as="sourcePoint" />
            <mxPoint x="478" y="1950" as="targetPoint" />
          </mxGeometry>
        </mxCell>
        <mxCell id="tTbxIWZ7TnJ0TmE4Gb5t-98" value="&lt;b&gt;&lt;font style=&quot;font-size: 14px;&quot;&gt;Teacher&lt;/font&gt;&lt;/b&gt;" style="shape=umlActor;verticalLabelPosition=bottom;verticalAlign=top;html=1;outlineConnect=0;" parent="1" vertex="1">
          <mxGeometry x="115" y="2380" width="65" height="100" as="geometry" />
        </mxCell>
        <mxCell id="tTbxIWZ7TnJ0TmE4Gb5t-99" value="&lt;span style=&quot;font-size: 14px;&quot;&gt;Profile&lt;/span&gt;" style="ellipse;whiteSpace=wrap;html=1;" parent="1" vertex="1">
          <mxGeometry x="335" y="2310" width="130" height="60" as="geometry" />
        </mxCell>
        <mxCell id="tTbxIWZ7TnJ0TmE4Gb5t-100" value="&lt;span style=&quot;font-size: 14px;&quot;&gt;Take Attendance&lt;/span&gt;" style="ellipse;whiteSpace=wrap;html=1;" parent="1" vertex="1">
          <mxGeometry x="337.5" y="2390" width="130" height="60" as="geometry" />
        </mxCell>
        <mxCell id="tTbxIWZ7TnJ0TmE4Gb5t-102" value="&lt;span style=&quot;font-size: 14px;&quot;&gt;View Attendance&lt;/span&gt;" style="ellipse;whiteSpace=wrap;html=1;" parent="1" vertex="1">
          <mxGeometry x="337.5" y="2470" width="130" height="60" as="geometry" />
        </mxCell>
        <mxCell id="tTbxIWZ7TnJ0TmE4Gb5t-103" value="&lt;span style=&quot;font-size: 14px;&quot;&gt;Post and View Notice&lt;/span&gt;" style="ellipse;whiteSpace=wrap;html=1;" parent="1" vertex="1">
          <mxGeometry x="337.5" y="2550" width="130" height="60" as="geometry" />
        </mxCell>
        <mxCell id="tTbxIWZ7TnJ0TmE4Gb5t-104" value="&lt;span style=&quot;font-size: 14px;&quot;&gt;View Notice&lt;/span&gt;" style="ellipse;whiteSpace=wrap;html=1;" parent="1" vertex="1">
          <mxGeometry x="340" y="2630" width="130" height="60" as="geometry" />
        </mxCell>
        <mxCell id="tTbxIWZ7TnJ0TmE4Gb5t-105" value="&lt;span style=&quot;font-size: 14px;&quot;&gt;Login&lt;/span&gt;" style="ellipse;whiteSpace=wrap;html=1;" parent="1" vertex="1">
          <mxGeometry x="330" y="2230" width="130" height="60" as="geometry" />
        </mxCell>
        <mxCell id="tTbxIWZ7TnJ0TmE4Gb5t-106" value="&lt;span style=&quot;font-size: 14px;&quot;&gt;SignUp&lt;/span&gt;" style="ellipse;whiteSpace=wrap;html=1;" parent="1" vertex="1">
          <mxGeometry x="330" y="2150" width="130" height="60" as="geometry" />
        </mxCell>
        <mxCell id="tTbxIWZ7TnJ0TmE4Gb5t-108" value="&lt;b&gt;&lt;font style=&quot;font-size: 14px;&quot;&gt;Student&lt;/font&gt;&lt;/b&gt;" style="shape=umlActor;verticalLabelPosition=bottom;verticalAlign=top;html=1;outlineConnect=0;" parent="1" vertex="1">
          <mxGeometry x="615" y="2380" width="65" height="100" as="geometry" />
        </mxCell>
        <mxCell id="tTbxIWZ7TnJ0TmE4Gb5t-110" value="" style="endArrow=none;html=1;rounded=0;entryX=0.013;entryY=0.661;entryDx=0;entryDy=0;entryPerimeter=0;" parent="1" target="tTbxIWZ7TnJ0TmE4Gb5t-106" edge="1">
          <mxGeometry width="50" height="50" relative="1" as="geometry">
            <mxPoint x="180" y="2430" as="sourcePoint" />
            <mxPoint x="230" y="2380" as="targetPoint" />
          </mxGeometry>
        </mxCell>
        <mxCell id="tTbxIWZ7TnJ0TmE4Gb5t-111" value="" style="endArrow=none;html=1;rounded=0;entryX=0.083;entryY=0.783;entryDx=0;entryDy=0;entryPerimeter=0;" parent="1" target="tTbxIWZ7TnJ0TmE4Gb5t-105" edge="1">
          <mxGeometry width="50" height="50" relative="1" as="geometry">
            <mxPoint x="180" y="2430" as="sourcePoint" />
            <mxPoint x="346" y="2210" as="targetPoint" />
          </mxGeometry>
        </mxCell>
        <mxCell id="tTbxIWZ7TnJ0TmE4Gb5t-112" value="" style="endArrow=none;html=1;rounded=0;entryX=0.057;entryY=0.751;entryDx=0;entryDy=0;entryPerimeter=0;" parent="1" target="tTbxIWZ7TnJ0TmE4Gb5t-99" edge="1">
          <mxGeometry width="50" height="50" relative="1" as="geometry">
            <mxPoint x="180" y="2430" as="sourcePoint" />
            <mxPoint x="351" y="2287" as="targetPoint" />
          </mxGeometry>
        </mxCell>
        <mxCell id="tTbxIWZ7TnJ0TmE4Gb5t-113" value="" style="endArrow=none;html=1;rounded=0;entryX=0.044;entryY=0.679;entryDx=0;entryDy=0;entryPerimeter=0;" parent="1" target="tTbxIWZ7TnJ0TmE4Gb5t-100" edge="1">
          <mxGeometry width="50" height="50" relative="1" as="geometry">
            <mxPoint x="180" y="2430" as="sourcePoint" />
            <mxPoint x="364" y="2371" as="targetPoint" />
          </mxGeometry>
        </mxCell>
        <mxCell id="tTbxIWZ7TnJ0TmE4Gb5t-115" value="" style="endArrow=none;html=1;rounded=0;entryX=0.026;entryY=0.369;entryDx=0;entryDy=0;entryPerimeter=0;" parent="1" target="tTbxIWZ7TnJ0TmE4Gb5t-103" edge="1">
          <mxGeometry width="50" height="50" relative="1" as="geometry">
            <mxPoint x="180" y="2430" as="sourcePoint" />
            <mxPoint x="340" y="2580" as="targetPoint" />
          </mxGeometry>
        </mxCell>
        <mxCell id="tTbxIWZ7TnJ0TmE4Gb5t-117" value="" style="endArrow=none;html=1;rounded=0;exitX=1;exitY=0.5;exitDx=0;exitDy=0;" parent="1" source="tTbxIWZ7TnJ0TmE4Gb5t-106" edge="1">
          <mxGeometry width="50" height="50" relative="1" as="geometry">
            <mxPoint x="480" y="2370" as="sourcePoint" />
            <mxPoint x="620" y="2440" as="targetPoint" />
          </mxGeometry>
        </mxCell>
        <mxCell id="tTbxIWZ7TnJ0TmE4Gb5t-118" value="" style="endArrow=none;html=1;rounded=0;exitX=0.972;exitY=0.693;exitDx=0;exitDy=0;exitPerimeter=0;" parent="1" source="tTbxIWZ7TnJ0TmE4Gb5t-105" edge="1">
          <mxGeometry width="50" height="50" relative="1" as="geometry">
            <mxPoint x="449" y="2270" as="sourcePoint" />
            <mxPoint x="620" y="2440" as="targetPoint" />
          </mxGeometry>
        </mxCell>
        <mxCell id="tTbxIWZ7TnJ0TmE4Gb5t-119" value="" style="endArrow=none;html=1;rounded=0;" parent="1" edge="1">
          <mxGeometry width="50" height="50" relative="1" as="geometry">
            <mxPoint x="460" y="2350" as="sourcePoint" />
            <mxPoint x="620" y="2440" as="targetPoint" />
          </mxGeometry>
        </mxCell>
        <mxCell id="tTbxIWZ7TnJ0TmE4Gb5t-121" value="" style="endArrow=none;html=1;rounded=0;exitX=0.987;exitY=0.647;exitDx=0;exitDy=0;exitPerimeter=0;" parent="1" source="tTbxIWZ7TnJ0TmE4Gb5t-102" edge="1">
          <mxGeometry width="50" height="50" relative="1" as="geometry">
            <mxPoint x="470" y="2498" as="sourcePoint" />
            <mxPoint x="620" y="2440" as="targetPoint" />
          </mxGeometry>
        </mxCell>
        <mxCell id="tTbxIWZ7TnJ0TmE4Gb5t-123" value="" style="endArrow=none;html=1;rounded=0;exitX=1.006;exitY=0.412;exitDx=0;exitDy=0;exitPerimeter=0;" parent="1" source="tTbxIWZ7TnJ0TmE4Gb5t-104" edge="1">
          <mxGeometry width="50" height="50" relative="1" as="geometry">
            <mxPoint x="476" y="2600" as="sourcePoint" />
            <mxPoint x="620" y="2440" as="targetPoint" />
          </mxGeometry>
        </mxCell>
        <mxCell id="tTbxIWZ7TnJ0TmE4Gb5t-124" value="&lt;font style=&quot;font-size: 18px;&quot;&gt;Use Case&amp;nbsp; Diagram for School Management System&lt;/font&gt;" style="text;html=1;align=center;verticalAlign=middle;resizable=0;points=[];autosize=1;strokeColor=none;fillColor=none;" parent="1" vertex="1">
          <mxGeometry x="182.5" y="2715" width="440" height="40" as="geometry" />
        </mxCell>
        <mxCell id="tTbxIWZ7TnJ0TmE4Gb5t-126" value="Login" style="rounded=0;whiteSpace=wrap;html=1;" parent="1" vertex="1">
          <mxGeometry x="40" y="2880" width="120" height="40" as="geometry" />
        </mxCell>
        <mxCell id="tTbxIWZ7TnJ0TmE4Gb5t-127" value="Has" style="rhombus;whiteSpace=wrap;html=1;" parent="1" vertex="1">
          <mxGeometry x="245" y="2845" width="80" height="80" as="geometry" />
        </mxCell>
        <mxCell id="tTbxIWZ7TnJ0TmE4Gb5t-128" value="Admin" style="rounded=0;whiteSpace=wrap;html=1;" parent="1" vertex="1">
          <mxGeometry x="375" y="2880" width="120" height="40" as="geometry" />
        </mxCell>
        <mxCell id="tTbxIWZ7TnJ0TmE4Gb5t-129" value="Manages" style="rhombus;whiteSpace=wrap;html=1;" parent="1" vertex="1">
          <mxGeometry x="680" y="3170" width="80" height="80" as="geometry" />
        </mxCell>
        <mxCell id="tTbxIWZ7TnJ0TmE4Gb5t-130" value="Student" style="rounded=0;whiteSpace=wrap;html=1;" parent="1" vertex="1">
          <mxGeometry x="720" y="2940" width="120" height="40" as="geometry" />
        </mxCell>
        <mxCell id="tTbxIWZ7TnJ0TmE4Gb5t-131" value="Teacher" style="rounded=0;whiteSpace=wrap;html=1;" parent="1" vertex="1">
          <mxGeometry x="560" y="3000" width="120" height="40" as="geometry" />
        </mxCell>
        <mxCell id="tTbxIWZ7TnJ0TmE4Gb5t-132" value="Takes" style="rhombus;whiteSpace=wrap;html=1;" parent="1" vertex="1">
          <mxGeometry x="355" y="3000" width="80" height="80" as="geometry" />
        </mxCell>
        <mxCell id="tTbxIWZ7TnJ0TmE4Gb5t-133" value="Marks" style="rounded=0;whiteSpace=wrap;html=1;" parent="1" vertex="1">
          <mxGeometry x="182.5" y="3240" width="120" height="40" as="geometry" />
        </mxCell>
        <mxCell id="tTbxIWZ7TnJ0TmE4Gb5t-134" value="Posts" style="rhombus;whiteSpace=wrap;html=1;" parent="1" vertex="1">
          <mxGeometry x="50" y="3000" width="80" height="80" as="geometry" />
        </mxCell>
        <mxCell id="tTbxIWZ7TnJ0TmE4Gb5t-135" value="Notice" style="rounded=0;whiteSpace=wrap;html=1;" parent="1" vertex="1">
          <mxGeometry x="10" y="3250" width="120" height="40" as="geometry" />
        </mxCell>
        <mxCell id="tTbxIWZ7TnJ0TmE4Gb5t-136" value="Views" style="rhombus;whiteSpace=wrap;html=1;" parent="1" vertex="1">
          <mxGeometry x="190" y="3000" width="80" height="80" as="geometry" />
        </mxCell>
        <mxCell id="tTbxIWZ7TnJ0TmE4Gb5t-137" value="Attendance" style="rounded=0;whiteSpace=wrap;html=1;" parent="1" vertex="1">
          <mxGeometry x="355" y="3240" width="120" height="40" as="geometry" />
        </mxCell>
        <mxCell id="tTbxIWZ7TnJ0TmE4Gb5t-138" value="Enters" style="rhombus;whiteSpace=wrap;html=1;" parent="1" vertex="1">
          <mxGeometry x="430" y="3050" width="80" height="80" as="geometry" />
        </mxCell>
        <mxCell id="tTbxIWZ7TnJ0TmE4Gb5t-140" value="Views" style="rhombus;whiteSpace=wrap;html=1;" parent="1" vertex="1">
          <mxGeometry x="590" y="3140" width="80" height="80" as="geometry" />
        </mxCell>
        <mxCell id="tTbxIWZ7TnJ0TmE4Gb5t-142" value="" style="endArrow=none;html=1;rounded=0;exitX=1;exitY=0.5;exitDx=0;exitDy=0;entryX=0;entryY=0.5;entryDx=0;entryDy=0;" parent="1" source="tTbxIWZ7TnJ0TmE4Gb5t-126" target="tTbxIWZ7TnJ0TmE4Gb5t-127" edge="1">
          <mxGeometry width="50" height="50" relative="1" as="geometry">
            <mxPoint x="520" y="3110" as="sourcePoint" />
            <mxPoint x="570" y="3060" as="targetPoint" />
          </mxGeometry>
        </mxCell>
        <mxCell id="tTbxIWZ7TnJ0TmE4Gb5t-143" value="" style="endArrow=none;html=1;rounded=0;entryX=0;entryY=0.5;entryDx=0;entryDy=0;" parent="1" target="tTbxIWZ7TnJ0TmE4Gb5t-128" edge="1">
          <mxGeometry width="50" height="50" relative="1" as="geometry">
            <mxPoint x="305" y="2900" as="sourcePoint" />
            <mxPoint x="370" y="2900" as="targetPoint" />
          </mxGeometry>
        </mxCell>
        <mxCell id="tTbxIWZ7TnJ0TmE4Gb5t-144" value="" style="endArrow=none;html=1;rounded=0;entryX=1;entryY=0.5;entryDx=0;entryDy=0;exitX=0;exitY=0.5;exitDx=0;exitDy=0;" parent="1" source="tTbxIWZ7TnJ0TmE4Gb5t-129" target="tTbxIWZ7TnJ0TmE4Gb5t-128" edge="1">
          <mxGeometry width="50" height="50" relative="1" as="geometry">
            <mxPoint x="520" y="3110" as="sourcePoint" />
            <mxPoint x="570" y="3060" as="targetPoint" />
          </mxGeometry>
        </mxCell>
        <mxCell id="tTbxIWZ7TnJ0TmE4Gb5t-148" value="" style="endArrow=none;html=1;rounded=0;entryX=0;entryY=0.5;entryDx=0;entryDy=0;" parent="1" target="tTbxIWZ7TnJ0TmE4Gb5t-130" edge="1">
          <mxGeometry width="50" height="50" relative="1" as="geometry">
            <mxPoint x="655" y="2900" as="sourcePoint" />
            <mxPoint x="705" y="2850" as="targetPoint" />
          </mxGeometry>
        </mxCell>
        <mxCell id="tTbxIWZ7TnJ0TmE4Gb5t-149" value="" style="endArrow=none;html=1;rounded=0;entryX=0.5;entryY=1;entryDx=0;entryDy=0;exitX=0.458;exitY=0;exitDx=0;exitDy=0;exitPerimeter=0;" parent="1" source="tTbxIWZ7TnJ0TmE4Gb5t-131" target="tTbxIWZ7TnJ0TmE4Gb5t-129" edge="1">
          <mxGeometry width="50" height="50" relative="1" as="geometry">
            <mxPoint x="520" y="3110" as="sourcePoint" />
            <mxPoint x="570" y="3060" as="targetPoint" />
          </mxGeometry>
        </mxCell>
        <mxCell id="tTbxIWZ7TnJ0TmE4Gb5t-150" value="" style="endArrow=none;html=1;rounded=0;exitX=0.857;exitY=0.321;exitDx=0;exitDy=0;exitPerimeter=0;entryX=0.5;entryY=1;entryDx=0;entryDy=0;" parent="1" source="tTbxIWZ7TnJ0TmE4Gb5t-138" target="tTbxIWZ7TnJ0TmE4Gb5t-131" edge="1">
          <mxGeometry width="50" height="50" relative="1" as="geometry">
            <mxPoint x="520" y="3110" as="sourcePoint" />
            <mxPoint x="610" y="3040" as="targetPoint" />
          </mxGeometry>
        </mxCell>
        <mxCell id="tTbxIWZ7TnJ0TmE4Gb5t-151" value="" style="endArrow=none;html=1;rounded=0;exitX=0;exitY=1;exitDx=0;exitDy=0;entryX=0.807;entryY=-0.069;entryDx=0;entryDy=0;entryPerimeter=0;" parent="1" source="tTbxIWZ7TnJ0TmE4Gb5t-138" target="tTbxIWZ7TnJ0TmE4Gb5t-133" edge="1">
          <mxGeometry width="50" height="50" relative="1" as="geometry">
            <mxPoint x="520" y="3110" as="sourcePoint" />
            <mxPoint x="570" y="3060" as="targetPoint" />
          </mxGeometry>
        </mxCell>
        <mxCell id="tTbxIWZ7TnJ0TmE4Gb5t-152" value="" style="endArrow=none;html=1;rounded=0;entryX=0.5;entryY=0;entryDx=0;entryDy=0;exitX=0.75;exitY=1;exitDx=0;exitDy=0;" parent="1" source="tTbxIWZ7TnJ0TmE4Gb5t-131" target="tTbxIWZ7TnJ0TmE4Gb5t-153" edge="1">
          <mxGeometry width="50" height="50" relative="1" as="geometry">
            <mxPoint x="727.6" y="3010" as="sourcePoint" />
            <mxPoint x="589.9999999999999" y="3119.5200000000004" as="targetPoint" />
          </mxGeometry>
        </mxCell>
        <mxCell id="tTbxIWZ7TnJ0TmE4Gb5t-153" value="Takes" style="rhombus;whiteSpace=wrap;html=1;" parent="1" vertex="1">
          <mxGeometry x="525" y="3080" width="80" height="80" as="geometry" />
        </mxCell>
        <mxCell id="tTbxIWZ7TnJ0TmE4Gb5t-156" value="" style="endArrow=none;html=1;rounded=0;exitX=1;exitY=0.5;exitDx=0;exitDy=0;entryX=0.5;entryY=1;entryDx=0;entryDy=0;" parent="1" source="tTbxIWZ7TnJ0TmE4Gb5t-137" target="tTbxIWZ7TnJ0TmE4Gb5t-140" edge="1">
          <mxGeometry width="50" height="50" relative="1" as="geometry">
            <mxPoint x="520" y="3110" as="sourcePoint" />
            <mxPoint x="570" y="3060" as="targetPoint" />
          </mxGeometry>
        </mxCell>
        <mxCell id="tTbxIWZ7TnJ0TmE4Gb5t-157" value="" style="endArrow=none;html=1;rounded=0;entryX=0.158;entryY=0.969;entryDx=0;entryDy=0;entryPerimeter=0;exitX=0.5;exitY=0;exitDx=0;exitDy=0;" parent="1" source="tTbxIWZ7TnJ0TmE4Gb5t-132" target="tTbxIWZ7TnJ0TmE4Gb5t-128" edge="1">
          <mxGeometry width="50" height="50" relative="1" as="geometry">
            <mxPoint x="520" y="3110" as="sourcePoint" />
            <mxPoint x="570" y="3060" as="targetPoint" />
          </mxGeometry>
        </mxCell>
        <mxCell id="tTbxIWZ7TnJ0TmE4Gb5t-158" value="" style="endArrow=none;html=1;rounded=0;entryX=0.5;entryY=1;entryDx=0;entryDy=0;exitX=0.305;exitY=0.046;exitDx=0;exitDy=0;exitPerimeter=0;" parent="1" source="tTbxIWZ7TnJ0TmE4Gb5t-137" target="tTbxIWZ7TnJ0TmE4Gb5t-132" edge="1">
          <mxGeometry width="50" height="50" relative="1" as="geometry">
            <mxPoint x="350" y="3130" as="sourcePoint" />
            <mxPoint x="400" y="3080" as="targetPoint" />
          </mxGeometry>
        </mxCell>
        <mxCell id="tTbxIWZ7TnJ0TmE4Gb5t-159" value="" style="endArrow=none;html=1;rounded=0;exitX=0.895;exitY=0.379;exitDx=0;exitDy=0;exitPerimeter=0;entryX=0.5;entryY=1;entryDx=0;entryDy=0;" parent="1" source="tTbxIWZ7TnJ0TmE4Gb5t-134" target="tTbxIWZ7TnJ0TmE4Gb5t-127" edge="1">
          <mxGeometry width="50" height="50" relative="1" as="geometry">
            <mxPoint x="520" y="3110" as="sourcePoint" />
            <mxPoint x="570" y="3060" as="targetPoint" />
          </mxGeometry>
        </mxCell>
        <mxCell id="tTbxIWZ7TnJ0TmE4Gb5t-160" value="" style="endArrow=none;html=1;rounded=0;exitX=0.648;exitY=0.046;exitDx=0;exitDy=0;exitPerimeter=0;entryX=0.5;entryY=1;entryDx=0;entryDy=0;" parent="1" source="tTbxIWZ7TnJ0TmE4Gb5t-135" target="tTbxIWZ7TnJ0TmE4Gb5t-134" edge="1">
          <mxGeometry width="50" height="50" relative="1" as="geometry">
            <mxPoint x="520" y="3110" as="sourcePoint" />
            <mxPoint x="570" y="3060" as="targetPoint" />
          </mxGeometry>
        </mxCell>
        <mxCell id="tTbxIWZ7TnJ0TmE4Gb5t-161" value="" style="endArrow=none;html=1;rounded=0;entryX=0;entryY=1;entryDx=0;entryDy=0;exitX=0.5;exitY=0;exitDx=0;exitDy=0;" parent="1" source="tTbxIWZ7TnJ0TmE4Gb5t-136" target="tTbxIWZ7TnJ0TmE4Gb5t-128" edge="1">
          <mxGeometry width="50" height="50" relative="1" as="geometry">
            <mxPoint x="235" y="3010" as="sourcePoint" />
            <mxPoint x="285" y="2960" as="targetPoint" />
          </mxGeometry>
        </mxCell>
        <mxCell id="tTbxIWZ7TnJ0TmE4Gb5t-162" value="" style="endArrow=none;html=1;rounded=0;entryX=0.5;entryY=1;entryDx=0;entryDy=0;exitX=0.371;exitY=-0.012;exitDx=0;exitDy=0;exitPerimeter=0;" parent="1" source="tTbxIWZ7TnJ0TmE4Gb5t-133" target="tTbxIWZ7TnJ0TmE4Gb5t-136" edge="1">
          <mxGeometry width="50" height="50" relative="1" as="geometry">
            <mxPoint x="180" y="3170" as="sourcePoint" />
            <mxPoint x="230" y="3120" as="targetPoint" />
          </mxGeometry>
        </mxCell>
        <mxCell id="tTbxIWZ7TnJ0TmE4Gb5t-163" value="" style="endArrow=none;html=1;rounded=0;exitX=1;exitY=0;exitDx=0;exitDy=0;entryX=0.5;entryY=1;entryDx=0;entryDy=0;" parent="1" source="tTbxIWZ7TnJ0TmE4Gb5t-137" target="tTbxIWZ7TnJ0TmE4Gb5t-153" edge="1">
          <mxGeometry width="50" height="50" relative="1" as="geometry">
            <mxPoint x="520" y="3110" as="sourcePoint" />
            <mxPoint x="570" y="3060" as="targetPoint" />
          </mxGeometry>
        </mxCell>
        <mxCell id="tTbxIWZ7TnJ0TmE4Gb5t-164" value="" style="endArrow=none;html=1;rounded=0;entryX=0.5;entryY=1;entryDx=0;entryDy=0;exitX=0.866;exitY=0.331;exitDx=0;exitDy=0;exitPerimeter=0;" parent="1" source="tTbxIWZ7TnJ0TmE4Gb5t-140" target="tTbxIWZ7TnJ0TmE4Gb5t-130" edge="1">
          <mxGeometry width="50" height="50" relative="1" as="geometry">
            <mxPoint x="655" y="3160" as="sourcePoint" />
            <mxPoint x="705" y="3110" as="targetPoint" />
          </mxGeometry>
        </mxCell>
        <mxCell id="tTbxIWZ7TnJ0TmE4Gb5t-165" value="" style="ellipse;whiteSpace=wrap;html=1;" parent="1" vertex="1">
          <mxGeometry x="2.5" y="2790" width="80" height="50" as="geometry" />
        </mxCell>
        <mxCell id="tTbxIWZ7TnJ0TmE4Gb5t-166" value="" style="ellipse;whiteSpace=wrap;html=1;" parent="1" vertex="1">
          <mxGeometry x="90" y="2780" width="80" height="50" as="geometry" />
        </mxCell>
        <mxCell id="tTbxIWZ7TnJ0TmE4Gb5t-167" value="" style="ellipse;whiteSpace=wrap;html=1;" parent="1" vertex="1">
          <mxGeometry x="355" y="2780" width="80" height="50" as="geometry" />
        </mxCell>
        <mxCell id="tTbxIWZ7TnJ0TmE4Gb5t-168" value="" style="ellipse;whiteSpace=wrap;html=1;" parent="1" vertex="1">
          <mxGeometry x="445" y="2780" width="80" height="50" as="geometry" />
        </mxCell>
        <mxCell id="tTbxIWZ7TnJ0TmE4Gb5t-169" value="" style="ellipse;whiteSpace=wrap;html=1;" parent="1" vertex="1">
          <mxGeometry x="525" y="2830" width="80" height="50" as="geometry" />
        </mxCell>
        <mxCell id="tTbxIWZ7TnJ0TmE4Gb5t-170" value="" style="ellipse;whiteSpace=wrap;html=1;" parent="1" vertex="1">
          <mxGeometry x="700" y="2820" width="80" height="50" as="geometry" />
        </mxCell>
        <mxCell id="tTbxIWZ7TnJ0TmE4Gb5t-171" value="" style="ellipse;whiteSpace=wrap;html=1;" parent="1" vertex="1">
          <mxGeometry x="790" y="2810" width="80" height="50" as="geometry" />
        </mxCell>
        <mxCell id="tTbxIWZ7TnJ0TmE4Gb5t-172" value="" style="ellipse;whiteSpace=wrap;html=1;" parent="1" vertex="1">
          <mxGeometry x="860" y="2860" width="80" height="50" as="geometry" />
        </mxCell>
        <mxCell id="tTbxIWZ7TnJ0TmE4Gb5t-173" value="" style="ellipse;whiteSpace=wrap;html=1;" parent="1" vertex="1">
          <mxGeometry x="870" y="2940" width="80" height="50" as="geometry" />
        </mxCell>
        <mxCell id="tTbxIWZ7TnJ0TmE4Gb5t-174" value="Contact" style="ellipse;whiteSpace=wrap;html=1;" parent="1" vertex="1">
          <mxGeometry x="820" y="3610" width="80" height="50" as="geometry" />
        </mxCell>
        <mxCell id="tTbxIWZ7TnJ0TmE4Gb5t-175" value="" style="ellipse;whiteSpace=wrap;html=1;" parent="1" vertex="1">
          <mxGeometry x="250" y="3330" width="80" height="50" as="geometry" />
        </mxCell>
        <mxCell id="tTbxIWZ7TnJ0TmE4Gb5t-176" value="" style="ellipse;whiteSpace=wrap;html=1;" parent="1" vertex="1">
          <mxGeometry x="155" y="3330" width="80" height="50" as="geometry" />
        </mxCell>
        <mxCell id="tTbxIWZ7TnJ0TmE4Gb5t-177" value="Class" style="ellipse;whiteSpace=wrap;html=1;" parent="1" vertex="1">
          <mxGeometry x="745" y="3640" width="80" height="50" as="geometry" />
        </mxCell>
        <mxCell id="tTbxIWZ7TnJ0TmE4Gb5t-178" value="First Name" style="ellipse;whiteSpace=wrap;html=1;" parent="1" vertex="1">
          <mxGeometry x="680" y="3750" width="80" height="50" as="geometry" />
        </mxCell>
        <mxCell id="tTbxIWZ7TnJ0TmE4Gb5t-179" value="Fee" style="ellipse;whiteSpace=wrap;html=1;" parent="1" vertex="1">
          <mxGeometry x="900" y="3630" width="80" height="50" as="geometry" />
        </mxCell>
        <mxCell id="tTbxIWZ7TnJ0TmE4Gb5t-180" value="" style="ellipse;whiteSpace=wrap;html=1;" parent="1" vertex="1">
          <mxGeometry x="460" y="2935" width="80" height="50" as="geometry" />
        </mxCell>
        <mxCell id="tTbxIWZ7TnJ0TmE4Gb5t-181" value="" style="ellipse;whiteSpace=wrap;html=1;" parent="1" vertex="1">
          <mxGeometry x="467.5" y="3000" width="80" height="50" as="geometry" />
        </mxCell>
        <mxCell id="WVOs3mUSCt7fYlh-w1K5-1" value="Admin" style="rounded=0;whiteSpace=wrap;html=1;" parent="1" vertex="1">
          <mxGeometry x="380" y="3950" width="120" height="40" as="geometry" />
        </mxCell>
        <mxCell id="WVOs3mUSCt7fYlh-w1K5-2" value="Login" style="rounded=0;whiteSpace=wrap;html=1;" parent="1" vertex="1">
          <mxGeometry x="385" y="3680" width="120" height="40" as="geometry" />
        </mxCell>
        <mxCell id="WVOs3mUSCt7fYlh-w1K5-3" value="Has" style="rhombus;whiteSpace=wrap;html=1;" parent="1" vertex="1">
          <mxGeometry x="395" y="3830" width="80" height="80" as="geometry" />
        </mxCell>
        <mxCell id="WVOs3mUSCt7fYlh-w1K5-4" value="Manages" style="rhombus;whiteSpace=wrap;html=1;" parent="1" vertex="1">
          <mxGeometry x="570" y="3830" width="80" height="80" as="geometry" />
        </mxCell>
        <mxCell id="WVOs3mUSCt7fYlh-w1K5-5" value="Manages" style="rhombus;whiteSpace=wrap;html=1;" parent="1" vertex="1">
          <mxGeometry x="600" y="4520" width="80" height="80" as="geometry" />
        </mxCell>
        <mxCell id="WVOs3mUSCt7fYlh-w1K5-6" value="Student" style="rounded=0;whiteSpace=wrap;html=1;" parent="1" vertex="1">
          <mxGeometry x="825" y="3810" width="120" height="40" as="geometry" />
        </mxCell>
        <mxCell id="WVOs3mUSCt7fYlh-w1K5-7" value="Teacher" style="rounded=0;whiteSpace=wrap;html=1;" parent="1" vertex="1">
          <mxGeometry x="800" y="4590" width="120" height="40" as="geometry" />
        </mxCell>
        <mxCell id="WVOs3mUSCt7fYlh-w1K5-8" value="Posts" style="rhombus;whiteSpace=wrap;html=1;" parent="1" vertex="1">
          <mxGeometry x="600" y="4090" width="80" height="80" as="geometry" />
        </mxCell>
        <mxCell id="WVOs3mUSCt7fYlh-w1K5-9" value="Notice" style="rounded=0;whiteSpace=wrap;html=1;" parent="1" vertex="1">
          <mxGeometry x="790" y="4110" width="120" height="40" as="geometry" />
        </mxCell>
        <mxCell id="WVOs3mUSCt7fYlh-w1K5-10" value="Views" style="rhombus;whiteSpace=wrap;html=1;" parent="1" vertex="1">
          <mxGeometry x="600" y="4240" width="80" height="80" as="geometry" />
        </mxCell>
        <mxCell id="WVOs3mUSCt7fYlh-w1K5-11" value="Marks" style="rounded=0;whiteSpace=wrap;html=1;" parent="1" vertex="1">
          <mxGeometry x="790" y="4260" width="120" height="40" as="geometry" />
        </mxCell>
        <mxCell id="WVOs3mUSCt7fYlh-w1K5-12" value="Takes" style="rhombus;whiteSpace=wrap;html=1;" parent="1" vertex="1">
          <mxGeometry x="600" y="3940" width="80" height="80" as="geometry" />
        </mxCell>
        <mxCell id="WVOs3mUSCt7fYlh-w1K5-13" value="Attendance" style="rounded=0;whiteSpace=wrap;html=1;" parent="1" vertex="1">
          <mxGeometry x="810" y="3960" width="120" height="40" as="geometry" />
        </mxCell>
        <mxCell id="7JG3coMox9IUpOKtM1Zi-1" value="Views" style="rhombus;whiteSpace=wrap;html=1;" parent="1" vertex="1">
          <mxGeometry x="600" y="4410" width="80" height="80" as="geometry" />
        </mxCell>
        <mxCell id="7JG3coMox9IUpOKtM1Zi-2" value="Fee" style="rounded=0;whiteSpace=wrap;html=1;" parent="1" vertex="1">
          <mxGeometry x="805" y="4440" width="120" height="40" as="geometry" />
        </mxCell>
        <mxCell id="7JG3coMox9IUpOKtM1Zi-3" value="Last Name" style="ellipse;whiteSpace=wrap;html=1;" parent="1" vertex="1">
          <mxGeometry x="695" y="3690" width="80" height="50" as="geometry" />
        </mxCell>
        <mxCell id="7JG3coMox9IUpOKtM1Zi-4" value="&lt;u&gt;Roll&lt;/u&gt;" style="ellipse;whiteSpace=wrap;html=1;" parent="1" vertex="1">
          <mxGeometry x="980" y="3660" width="80" height="50" as="geometry" />
        </mxCell>
        <mxCell id="7JG3coMox9IUpOKtM1Zi-5" value="Username" style="ellipse;whiteSpace=wrap;html=1;" parent="1" vertex="1">
          <mxGeometry x="1020" y="3710" width="80" height="50" as="geometry" />
        </mxCell>
        <mxCell id="7JG3coMox9IUpOKtM1Zi-6" value="Password" style="ellipse;whiteSpace=wrap;html=1;" parent="1" vertex="1">
          <mxGeometry x="1030" y="3770" width="80" height="50" as="geometry" />
        </mxCell>
        <mxCell id="7JG3coMox9IUpOKtM1Zi-7" value="First Name" style="ellipse;whiteSpace=wrap;html=1;" parent="1" vertex="1">
          <mxGeometry x="655" y="4630" width="80" height="50" as="geometry" />
        </mxCell>
        <mxCell id="7JG3coMox9IUpOKtM1Zi-8" value="Last Name" style="ellipse;whiteSpace=wrap;html=1;" parent="1" vertex="1">
          <mxGeometry x="710" y="4680" width="80" height="50" as="geometry" />
        </mxCell>
        <mxCell id="7JG3coMox9IUpOKtM1Zi-9" value="Contact" style="ellipse;whiteSpace=wrap;html=1;" parent="1" vertex="1">
          <mxGeometry x="800" y="4690" width="80" height="50" as="geometry" />
        </mxCell>
        <mxCell id="7JG3coMox9IUpOKtM1Zi-10" value="Username" style="ellipse;whiteSpace=wrap;html=1;" parent="1" vertex="1">
          <mxGeometry x="890" y="4680" width="80" height="50" as="geometry" />
        </mxCell>
        <mxCell id="7JG3coMox9IUpOKtM1Zi-11" value="Password" style="ellipse;whiteSpace=wrap;html=1;" parent="1" vertex="1">
          <mxGeometry x="965" y="4660" width="80" height="50" as="geometry" />
        </mxCell>
        <mxCell id="7JG3coMox9IUpOKtM1Zi-12" value="Salary" style="ellipse;whiteSpace=wrap;html=1;" parent="1" vertex="1">
          <mxGeometry x="1000" y="4610" width="80" height="50" as="geometry" />
        </mxCell>
        <mxCell id="7JG3coMox9IUpOKtM1Zi-13" value="Student&lt;br&gt;&amp;nbsp;Name" style="ellipse;whiteSpace=wrap;html=1;" parent="1" vertex="1">
          <mxGeometry x="720" y="3900" width="80" height="50" as="geometry" />
        </mxCell>
        <mxCell id="7JG3coMox9IUpOKtM1Zi-14" value="&lt;u&gt;Student Roll&lt;/u&gt;" style="ellipse;whiteSpace=wrap;html=1;" parent="1" vertex="1">
          <mxGeometry x="805" y="3880" width="80" height="50" as="geometry" />
        </mxCell>
        <mxCell id="7JG3coMox9IUpOKtM1Zi-15" value="Present/&lt;br&gt;Absent" style="ellipse;whiteSpace=wrap;html=1;" parent="1" vertex="1">
          <mxGeometry x="900" y="3890" width="80" height="50" as="geometry" />
        </mxCell>
        <mxCell id="7JG3coMox9IUpOKtM1Zi-16" value="Description" style="ellipse;whiteSpace=wrap;html=1;" parent="1" vertex="1">
          <mxGeometry x="750" y="4040" width="80" height="50" as="geometry" />
        </mxCell>
        <mxCell id="7JG3coMox9IUpOKtM1Zi-17" value="Student Name" style="ellipse;whiteSpace=wrap;html=1;" parent="1" vertex="1">
          <mxGeometry x="700" y="4210" width="80" height="50" as="geometry" />
        </mxCell>
        <mxCell id="7JG3coMox9IUpOKtM1Zi-18" value="Sciencce" style="ellipse;whiteSpace=wrap;html=1;" parent="1" vertex="1">
          <mxGeometry x="760" y="4170" width="80" height="50" as="geometry" />
        </mxCell>
        <mxCell id="7JG3coMox9IUpOKtM1Zi-19" value="Social" style="ellipse;whiteSpace=wrap;html=1;" parent="1" vertex="1">
          <mxGeometry x="845" y="4160" width="80" height="50" as="geometry" />
        </mxCell>
        <mxCell id="7JG3coMox9IUpOKtM1Zi-20" value="Math" style="ellipse;whiteSpace=wrap;html=1;" parent="1" vertex="1">
          <mxGeometry x="920" y="4180" width="80" height="50" as="geometry" />
        </mxCell>
        <mxCell id="7JG3coMox9IUpOKtM1Zi-21" value="English" style="ellipse;whiteSpace=wrap;html=1;" parent="1" vertex="1">
          <mxGeometry x="930" y="4240" width="80" height="50" as="geometry" />
        </mxCell>
        <mxCell id="7JG3coMox9IUpOKtM1Zi-22" value="Nepali" style="ellipse;whiteSpace=wrap;html=1;" parent="1" vertex="1">
          <mxGeometry x="695" y="4300" width="80" height="50" as="geometry" />
        </mxCell>
        <mxCell id="7JG3coMox9IUpOKtM1Zi-23" value="Student Name" style="ellipse;whiteSpace=wrap;html=1;" parent="1" vertex="1">
          <mxGeometry x="725" y="4380" width="80" height="50" as="geometry" />
        </mxCell>
        <mxCell id="7JG3coMox9IUpOKtM1Zi-24" value="Contact" style="ellipse;whiteSpace=wrap;html=1;" parent="1" vertex="1">
          <mxGeometry x="940" y="4380" width="80" height="50" as="geometry" />
        </mxCell>
        <mxCell id="7JG3coMox9IUpOKtM1Zi-25" value="&lt;u&gt;Roll&lt;/u&gt;" style="ellipse;whiteSpace=wrap;html=1;" parent="1" vertex="1">
          <mxGeometry x="800" y="4340" width="80" height="50" as="geometry" />
        </mxCell>
        <mxCell id="7JG3coMox9IUpOKtM1Zi-26" value="Dues" style="ellipse;whiteSpace=wrap;html=1;" parent="1" vertex="1">
          <mxGeometry x="885" y="4340" width="80" height="50" as="geometry" />
        </mxCell>
        <mxCell id="7JG3coMox9IUpOKtM1Zi-27" value="" style="endArrow=none;html=1;rounded=0;" parent="1" edge="1">
          <mxGeometry width="50" height="50" relative="1" as="geometry">
            <mxPoint x="505" y="3700" as="sourcePoint" />
            <mxPoint x="570" y="3700" as="targetPoint" />
          </mxGeometry>
        </mxCell>
        <mxCell id="7JG3coMox9IUpOKtM1Zi-28" value="" style="endArrow=none;html=1;rounded=0;" parent="1" edge="1">
          <mxGeometry width="50" height="50" relative="1" as="geometry">
            <mxPoint x="610" y="3820" as="sourcePoint" />
            <mxPoint x="825" y="3819.31" as="targetPoint" />
          </mxGeometry>
        </mxCell>
        <mxCell id="7JG3coMox9IUpOKtM1Zi-29" value="" style="endArrow=none;html=1;rounded=0;exitX=0.5;exitY=0;exitDx=0;exitDy=0;entryX=0.43;entryY=1.025;entryDx=0;entryDy=0;entryPerimeter=0;" parent="1" source="WVOs3mUSCt7fYlh-w1K5-3" target="WVOs3mUSCt7fYlh-w1K5-2" edge="1">
          <mxGeometry width="50" height="50" relative="1" as="geometry">
            <mxPoint x="405" y="3810" as="sourcePoint" />
            <mxPoint x="455" y="3760" as="targetPoint" />
          </mxGeometry>
        </mxCell>
        <mxCell id="7JG3coMox9IUpOKtM1Zi-30" value="Has" style="rhombus;whiteSpace=wrap;html=1;" parent="1" vertex="1">
          <mxGeometry x="570" y="3660" width="80" height="80" as="geometry" />
        </mxCell>
        <mxCell id="7JG3coMox9IUpOKtM1Zi-31" value="" style="endArrow=none;html=1;rounded=0;entryX=0.5;entryY=1;entryDx=0;entryDy=0;" parent="1" target="7JG3coMox9IUpOKtM1Zi-30" edge="1">
          <mxGeometry width="50" height="50" relative="1" as="geometry">
            <mxPoint x="610" y="3820" as="sourcePoint" />
            <mxPoint x="320" y="3850" as="targetPoint" />
          </mxGeometry>
        </mxCell>
        <mxCell id="7JG3coMox9IUpOKtM1Zi-32" value="" style="endArrow=none;html=1;rounded=0;entryX=0;entryY=0.5;entryDx=0;entryDy=0;" parent="1" target="WVOs3mUSCt7fYlh-w1K5-4" edge="1">
          <mxGeometry width="50" height="50" relative="1" as="geometry">
            <mxPoint x="490" y="3870" as="sourcePoint" />
            <mxPoint x="750" y="3900" as="targetPoint" />
          </mxGeometry>
        </mxCell>
        <mxCell id="7JG3coMox9IUpOKtM1Zi-33" value="" style="endArrow=none;html=1;rounded=0;entryX=0.5;entryY=1;entryDx=0;entryDy=0;" parent="1" target="WVOs3mUSCt7fYlh-w1K5-3" edge="1">
          <mxGeometry width="50" height="50" relative="1" as="geometry">
            <mxPoint x="435" y="3950" as="sourcePoint" />
            <mxPoint x="490" y="3920" as="targetPoint" />
          </mxGeometry>
        </mxCell>
        <mxCell id="7JG3coMox9IUpOKtM1Zi-34" value="" style="endArrow=none;html=1;rounded=0;" parent="1" edge="1">
          <mxGeometry width="50" height="50" relative="1" as="geometry">
            <mxPoint x="335" y="3700" as="sourcePoint" />
            <mxPoint x="385" y="3700" as="targetPoint" />
          </mxGeometry>
        </mxCell>
        <mxCell id="7JG3coMox9IUpOKtM1Zi-35" value="" style="endArrow=none;html=1;rounded=0;" parent="1" edge="1">
          <mxGeometry width="50" height="50" relative="1" as="geometry">
            <mxPoint x="330" y="4620" as="sourcePoint" />
            <mxPoint x="335" y="3700" as="targetPoint" />
          </mxGeometry>
        </mxCell>
        <mxCell id="7JG3coMox9IUpOKtM1Zi-36" value="Has" style="rhombus;whiteSpace=wrap;html=1;" parent="1" vertex="1">
          <mxGeometry x="292.5" y="4100" width="80" height="80" as="geometry" />
        </mxCell>
        <mxCell id="7JG3coMox9IUpOKtM1Zi-37" value="" style="endArrow=none;html=1;rounded=0;entryX=0;entryY=0.75;entryDx=0;entryDy=0;" parent="1" target="WVOs3mUSCt7fYlh-w1K5-7" edge="1">
          <mxGeometry width="50" height="50" relative="1" as="geometry">
            <mxPoint x="330" y="4620" as="sourcePoint" />
            <mxPoint x="880" y="4590" as="targetPoint" />
          </mxGeometry>
        </mxCell>
        <mxCell id="7JG3coMox9IUpOKtM1Zi-38" value="" style="endArrow=none;html=1;rounded=0;entryX=0;entryY=0.5;entryDx=0;entryDy=0;exitX=1;exitY=0;exitDx=0;exitDy=0;" parent="1" source="WVOs3mUSCt7fYlh-w1K5-6" target="7JG3coMox9IUpOKtM1Zi-6" edge="1">
          <mxGeometry width="50" height="50" relative="1" as="geometry">
            <mxPoint x="855" y="3780" as="sourcePoint" />
            <mxPoint x="905" y="3730" as="targetPoint" />
          </mxGeometry>
        </mxCell>
        <mxCell id="7JG3coMox9IUpOKtM1Zi-39" value="" style="endArrow=none;html=1;rounded=0;entryX=0.026;entryY=0.59;entryDx=0;entryDy=0;entryPerimeter=0;exitX=0.852;exitY=-0.036;exitDx=0;exitDy=0;exitPerimeter=0;" parent="1" source="WVOs3mUSCt7fYlh-w1K5-6" target="7JG3coMox9IUpOKtM1Zi-5" edge="1">
          <mxGeometry width="50" height="50" relative="1" as="geometry">
            <mxPoint x="920" y="3781.5" as="sourcePoint" />
            <mxPoint x="1001" y="3768.5" as="targetPoint" />
          </mxGeometry>
        </mxCell>
        <mxCell id="7JG3coMox9IUpOKtM1Zi-40" value="" style="endArrow=none;html=1;rounded=0;entryX=0;entryY=1;entryDx=0;entryDy=0;exitX=0.669;exitY=-0.004;exitDx=0;exitDy=0;exitPerimeter=0;" parent="1" source="WVOs3mUSCt7fYlh-w1K5-6" target="7JG3coMox9IUpOKtM1Zi-4" edge="1">
          <mxGeometry width="50" height="50" relative="1" as="geometry">
            <mxPoint x="902.5" y="3809" as="sourcePoint" />
            <mxPoint x="997.5" y="3740" as="targetPoint" />
          </mxGeometry>
        </mxCell>
        <mxCell id="7JG3coMox9IUpOKtM1Zi-41" value="" style="endArrow=none;html=1;rounded=0;exitX=0.556;exitY=-0.02;exitDx=0;exitDy=0;exitPerimeter=0;" parent="1" source="WVOs3mUSCt7fYlh-w1K5-6" target="tTbxIWZ7TnJ0TmE4Gb5t-179" edge="1">
          <mxGeometry width="50" height="50" relative="1" as="geometry">
            <mxPoint x="864" y="3787.5" as="sourcePoint" />
            <mxPoint x="945" y="3682.5" as="targetPoint" />
          </mxGeometry>
        </mxCell>
        <mxCell id="7JG3coMox9IUpOKtM1Zi-42" value="" style="endArrow=none;html=1;rounded=0;exitX=0.25;exitY=0;exitDx=0;exitDy=0;entryX=0.994;entryY=0.681;entryDx=0;entryDy=0;entryPerimeter=0;" parent="1" source="WVOs3mUSCt7fYlh-w1K5-6" target="tTbxIWZ7TnJ0TmE4Gb5t-178" edge="1">
          <mxGeometry width="50" height="50" relative="1" as="geometry">
            <mxPoint x="715" y="3890" as="sourcePoint" />
            <mxPoint x="755" y="3761" as="targetPoint" />
          </mxGeometry>
        </mxCell>
        <mxCell id="7JG3coMox9IUpOKtM1Zi-43" value="" style="endArrow=none;html=1;rounded=0;entryX=1;entryY=1;entryDx=0;entryDy=0;" parent="1" source="WVOs3mUSCt7fYlh-w1K5-6" target="tTbxIWZ7TnJ0TmE4Gb5t-177" edge="1">
          <mxGeometry width="50" height="50" relative="1" as="geometry">
            <mxPoint x="805" y="3819" as="sourcePoint" />
            <mxPoint x="845" y="3690" as="targetPoint" />
          </mxGeometry>
        </mxCell>
        <mxCell id="7JG3coMox9IUpOKtM1Zi-44" value="" style="endArrow=none;html=1;rounded=0;entryX=0.976;entryY=0.706;entryDx=0;entryDy=0;entryPerimeter=0;" parent="1" source="WVOs3mUSCt7fYlh-w1K5-6" target="7JG3coMox9IUpOKtM1Zi-3" edge="1">
          <mxGeometry width="50" height="50" relative="1" as="geometry">
            <mxPoint x="770" y="3830" as="sourcePoint" />
            <mxPoint x="810" y="3701" as="targetPoint" />
          </mxGeometry>
        </mxCell>
        <mxCell id="7JG3coMox9IUpOKtM1Zi-45" value="" style="endArrow=none;html=1;rounded=0;exitX=0.5;exitY=0;exitDx=0;exitDy=0;" parent="1" source="WVOs3mUSCt7fYlh-w1K5-6" edge="1">
          <mxGeometry width="50" height="50" relative="1" as="geometry">
            <mxPoint x="860" y="3810" as="sourcePoint" />
            <mxPoint x="870" y="3660" as="targetPoint" />
          </mxGeometry>
        </mxCell>
        <mxCell id="7JG3coMox9IUpOKtM1Zi-46" value="" style="endArrow=none;html=1;rounded=0;exitX=0.131;exitY=0.004;exitDx=0;exitDy=0;entryX=1;entryY=1;entryDx=0;entryDy=0;exitPerimeter=0;" parent="1" source="WVOs3mUSCt7fYlh-w1K5-13" target="7JG3coMox9IUpOKtM1Zi-13" edge="1">
          <mxGeometry width="50" height="50" relative="1" as="geometry">
            <mxPoint x="970" y="4010" as="sourcePoint" />
            <mxPoint x="1020" y="3960" as="targetPoint" />
          </mxGeometry>
        </mxCell>
        <mxCell id="7JG3coMox9IUpOKtM1Zi-47" value="" style="endArrow=none;html=1;rounded=0;exitX=0.319;exitY=0.022;exitDx=0;exitDy=0;entryX=0.53;entryY=1.012;entryDx=0;entryDy=0;exitPerimeter=0;entryPerimeter=0;" parent="1" source="WVOs3mUSCt7fYlh-w1K5-13" target="7JG3coMox9IUpOKtM1Zi-14" edge="1">
          <mxGeometry width="50" height="50" relative="1" as="geometry">
            <mxPoint x="893" y="3960" as="sourcePoint" />
            <mxPoint x="845" y="3933" as="targetPoint" />
          </mxGeometry>
        </mxCell>
        <mxCell id="7JG3coMox9IUpOKtM1Zi-48" value="" style="endArrow=none;html=1;rounded=0;exitX=0.319;exitY=0.022;exitDx=0;exitDy=0;entryX=0.347;entryY=0.969;entryDx=0;entryDy=0;exitPerimeter=0;entryPerimeter=0;" parent="1" target="7JG3coMox9IUpOKtM1Zi-15" edge="1">
          <mxGeometry width="50" height="50" relative="1" as="geometry">
            <mxPoint x="906" y="3960" as="sourcePoint" />
            <mxPoint x="905" y="3930" as="targetPoint" />
          </mxGeometry>
        </mxCell>
        <mxCell id="7JG3coMox9IUpOKtM1Zi-49" value="" style="endArrow=none;html=1;rounded=0;exitX=0.361;exitY=-0.015;exitDx=0;exitDy=0;exitPerimeter=0;" parent="1" source="WVOs3mUSCt7fYlh-w1K5-9" target="7JG3coMox9IUpOKtM1Zi-16" edge="1">
          <mxGeometry width="50" height="50" relative="1" as="geometry">
            <mxPoint x="830" y="4170" as="sourcePoint" />
            <mxPoint x="880" y="4120" as="targetPoint" />
          </mxGeometry>
        </mxCell>
        <mxCell id="7JG3coMox9IUpOKtM1Zi-50" value="" style="endArrow=none;html=1;rounded=0;entryX=0;entryY=0;entryDx=0;entryDy=0;" parent="1" source="7JG3coMox9IUpOKtM1Zi-17" target="WVOs3mUSCt7fYlh-w1K5-11" edge="1">
          <mxGeometry width="50" height="50" relative="1" as="geometry">
            <mxPoint x="830" y="4330" as="sourcePoint" />
            <mxPoint x="880" y="4280" as="targetPoint" />
          </mxGeometry>
        </mxCell>
        <mxCell id="7JG3coMox9IUpOKtM1Zi-51" value="" style="endArrow=none;html=1;rounded=0;entryX=0.189;entryY=0.015;entryDx=0;entryDy=0;exitX=0.61;exitY=0.996;exitDx=0;exitDy=0;exitPerimeter=0;entryPerimeter=0;" parent="1" source="7JG3coMox9IUpOKtM1Zi-18" target="WVOs3mUSCt7fYlh-w1K5-11" edge="1">
          <mxGeometry width="50" height="50" relative="1" as="geometry">
            <mxPoint x="800" y="4240" as="sourcePoint" />
            <mxPoint x="819" y="4249" as="targetPoint" />
          </mxGeometry>
        </mxCell>
        <mxCell id="7JG3coMox9IUpOKtM1Zi-52" value="" style="endArrow=none;html=1;rounded=0;entryX=0.347;entryY=0.026;entryDx=0;entryDy=0;exitX=0.227;exitY=0.931;exitDx=0;exitDy=0;exitPerimeter=0;entryPerimeter=0;" parent="1" source="7JG3coMox9IUpOKtM1Zi-19" target="WVOs3mUSCt7fYlh-w1K5-11" edge="1">
          <mxGeometry width="50" height="50" relative="1" as="geometry">
            <mxPoint x="819" y="4230" as="sourcePoint" />
            <mxPoint x="823" y="4269" as="targetPoint" />
          </mxGeometry>
        </mxCell>
        <mxCell id="7JG3coMox9IUpOKtM1Zi-53" value="" style="endArrow=none;html=1;rounded=0;entryX=0.842;entryY=0.005;entryDx=0;entryDy=0;entryPerimeter=0;exitX=0.09;exitY=0.796;exitDx=0;exitDy=0;exitPerimeter=0;" parent="1" source="7JG3coMox9IUpOKtM1Zi-20" target="WVOs3mUSCt7fYlh-w1K5-11" edge="1">
          <mxGeometry width="50" height="50" relative="1" as="geometry">
            <mxPoint x="930" y="4220" as="sourcePoint" />
            <mxPoint x="902" y="4255.5" as="targetPoint" />
            <Array as="points" />
          </mxGeometry>
        </mxCell>
        <mxCell id="7JG3coMox9IUpOKtM1Zi-54" value="" style="endArrow=none;html=1;rounded=0;entryX=0;entryY=0.5;entryDx=0;entryDy=0;exitX=1.018;exitY=0.23;exitDx=0;exitDy=0;exitPerimeter=0;" parent="1" source="WVOs3mUSCt7fYlh-w1K5-11" target="7JG3coMox9IUpOKtM1Zi-21" edge="1">
          <mxGeometry width="50" height="50" relative="1" as="geometry">
            <mxPoint x="908" y="4224.5" as="sourcePoint" />
            <mxPoint x="912" y="4265.5" as="targetPoint" />
          </mxGeometry>
        </mxCell>
        <mxCell id="7JG3coMox9IUpOKtM1Zi-55" value="" style="endArrow=none;html=1;rounded=0;entryX=-0.003;entryY=0.875;entryDx=0;entryDy=0;entryPerimeter=0;exitX=1;exitY=0;exitDx=0;exitDy=0;" parent="1" source="WVOs3mUSCt7fYlh-w1K5-4" target="WVOs3mUSCt7fYlh-w1K5-6" edge="1">
          <mxGeometry width="50" height="50" relative="1" as="geometry">
            <mxPoint x="635" y="3860" as="sourcePoint" />
            <mxPoint x="685" y="3810" as="targetPoint" />
          </mxGeometry>
        </mxCell>
        <mxCell id="7JG3coMox9IUpOKtM1Zi-56" value="" style="endArrow=none;html=1;rounded=0;exitX=1;exitY=0.5;exitDx=0;exitDy=0;entryX=0;entryY=0.496;entryDx=0;entryDy=0;entryPerimeter=0;" parent="1" target="WVOs3mUSCt7fYlh-w1K5-12" edge="1">
          <mxGeometry width="50" height="50" relative="1" as="geometry">
            <mxPoint x="500" y="3979.67" as="sourcePoint" />
            <mxPoint x="595" y="3979.67" as="targetPoint" />
          </mxGeometry>
        </mxCell>
        <mxCell id="7JG3coMox9IUpOKtM1Zi-57" value="" style="endArrow=none;html=1;rounded=0;exitX=1;exitY=0.5;exitDx=0;exitDy=0;entryX=0;entryY=0.5;entryDx=0;entryDy=0;" parent="1" target="WVOs3mUSCt7fYlh-w1K5-13" edge="1">
          <mxGeometry width="50" height="50" relative="1" as="geometry">
            <mxPoint x="680" y="3979.67" as="sourcePoint" />
            <mxPoint x="780" y="3980" as="targetPoint" />
          </mxGeometry>
        </mxCell>
        <mxCell id="7JG3coMox9IUpOKtM1Zi-58" value="" style="endArrow=none;html=1;rounded=0;entryX=0;entryY=0.496;entryDx=0;entryDy=0;entryPerimeter=0;" parent="1" edge="1">
          <mxGeometry width="50" height="50" relative="1" as="geometry">
            <mxPoint x="490" y="4130" as="sourcePoint" />
            <mxPoint x="600" y="4130" as="targetPoint" />
          </mxGeometry>
        </mxCell>
        <mxCell id="7JG3coMox9IUpOKtM1Zi-59" value="" style="endArrow=none;html=1;rounded=0;entryX=0.5;entryY=1;entryDx=0;entryDy=0;" parent="1" edge="1">
          <mxGeometry width="50" height="50" relative="1" as="geometry">
            <mxPoint x="489.78000000000003" y="4130" as="sourcePoint" />
            <mxPoint x="489.78000000000003" y="3990" as="targetPoint" />
          </mxGeometry>
        </mxCell>
        <mxCell id="7JG3coMox9IUpOKtM1Zi-60" value="" style="endArrow=none;html=1;rounded=0;entryX=0;entryY=0.5;entryDx=0;entryDy=0;" parent="1" target="WVOs3mUSCt7fYlh-w1K5-9" edge="1">
          <mxGeometry width="50" height="50" relative="1" as="geometry">
            <mxPoint x="680" y="4129.67" as="sourcePoint" />
            <mxPoint x="840" y="4129.67" as="targetPoint" />
          </mxGeometry>
        </mxCell>
        <mxCell id="7JG3coMox9IUpOKtM1Zi-61" value="" style="endArrow=none;html=1;rounded=0;entryX=0.5;entryY=1;entryDx=0;entryDy=0;" parent="1" edge="1">
          <mxGeometry width="50" height="50" relative="1" as="geometry">
            <mxPoint x="468" y="4280" as="sourcePoint" />
            <mxPoint x="467.5" y="3990" as="targetPoint" />
          </mxGeometry>
        </mxCell>
        <mxCell id="7JG3coMox9IUpOKtM1Zi-62" value="" style="endArrow=none;html=1;rounded=0;entryX=0.5;entryY=1;entryDx=0;entryDy=0;" parent="1" edge="1">
          <mxGeometry width="50" height="50" relative="1" as="geometry">
            <mxPoint x="445" y="4450" as="sourcePoint" />
            <mxPoint x="445" y="3990" as="targetPoint" />
          </mxGeometry>
        </mxCell>
        <mxCell id="7JG3coMox9IUpOKtM1Zi-63" value="" style="endArrow=none;html=1;rounded=0;entryX=0.5;entryY=1;entryDx=0;entryDy=0;" parent="1" edge="1">
          <mxGeometry width="50" height="50" relative="1" as="geometry">
            <mxPoint x="425" y="4560" as="sourcePoint" />
            <mxPoint x="425" y="3990" as="targetPoint" />
          </mxGeometry>
        </mxCell>
        <mxCell id="7JG3coMox9IUpOKtM1Zi-64" value="" style="endArrow=none;html=1;rounded=0;entryX=0;entryY=0.5;entryDx=0;entryDy=0;" parent="1" target="WVOs3mUSCt7fYlh-w1K5-10" edge="1">
          <mxGeometry width="50" height="50" relative="1" as="geometry">
            <mxPoint x="467.5" y="4279.52" as="sourcePoint" />
            <mxPoint x="577.5" y="4279.52" as="targetPoint" />
          </mxGeometry>
        </mxCell>
        <mxCell id="7JG3coMox9IUpOKtM1Zi-65" value="" style="endArrow=none;html=1;rounded=0;entryX=0;entryY=0.5;entryDx=0;entryDy=0;" parent="1" target="7JG3coMox9IUpOKtM1Zi-1" edge="1">
          <mxGeometry width="50" height="50" relative="1" as="geometry">
            <mxPoint x="445" y="4449.76" as="sourcePoint" />
            <mxPoint x="577.5" y="4450.24" as="targetPoint" />
          </mxGeometry>
        </mxCell>
        <mxCell id="7JG3coMox9IUpOKtM1Zi-66" value="" style="endArrow=none;html=1;rounded=0;entryX=0;entryY=0.5;entryDx=0;entryDy=0;" parent="1" target="WVOs3mUSCt7fYlh-w1K5-5" edge="1">
          <mxGeometry width="50" height="50" relative="1" as="geometry">
            <mxPoint x="425" y="4559.81" as="sourcePoint" />
            <mxPoint x="580" y="4560.05" as="targetPoint" />
          </mxGeometry>
        </mxCell>
        <mxCell id="7JG3coMox9IUpOKtM1Zi-67" value="" style="endArrow=none;html=1;rounded=0;entryX=0;entryY=0.25;entryDx=0;entryDy=0;" parent="1" target="7JG3coMox9IUpOKtM1Zi-2" edge="1">
          <mxGeometry width="50" height="50" relative="1" as="geometry">
            <mxPoint x="680" y="4449.7300000000005" as="sourcePoint" />
            <mxPoint x="835" y="4449.97" as="targetPoint" />
          </mxGeometry>
        </mxCell>
        <mxCell id="7JG3coMox9IUpOKtM1Zi-68" value="" style="endArrow=none;html=1;rounded=0;entryX=0;entryY=0.25;entryDx=0;entryDy=0;" parent="1" edge="1">
          <mxGeometry width="50" height="50" relative="1" as="geometry">
            <mxPoint x="680" y="4559.7300000000005" as="sourcePoint" />
            <mxPoint x="805" y="4560" as="targetPoint" />
          </mxGeometry>
        </mxCell>
        <mxCell id="7JG3coMox9IUpOKtM1Zi-69" value="" style="endArrow=none;html=1;rounded=0;entryX=0.046;entryY=-0.028;entryDx=0;entryDy=0;exitX=0.61;exitY=0.996;exitDx=0;exitDy=0;exitPerimeter=0;entryPerimeter=0;" parent="1" target="WVOs3mUSCt7fYlh-w1K5-7" edge="1">
          <mxGeometry width="50" height="50" relative="1" as="geometry">
            <mxPoint x="805" y="4559" as="sourcePoint" />
            <mxPoint x="809" y="4600" as="targetPoint" />
          </mxGeometry>
        </mxCell>
        <mxCell id="7JG3coMox9IUpOKtM1Zi-70" value="" style="endArrow=none;html=1;rounded=0;" parent="1" edge="1">
          <mxGeometry width="50" height="50" relative="1" as="geometry">
            <mxPoint x="680" y="4279.620000000001" as="sourcePoint" />
            <mxPoint x="790" y="4280" as="targetPoint" />
          </mxGeometry>
        </mxCell>
        <mxCell id="7JG3coMox9IUpOKtM1Zi-71" value="" style="endArrow=none;html=1;rounded=0;exitX=0.898;exitY=0.22;exitDx=0;exitDy=0;exitPerimeter=0;entryX=0;entryY=1;entryDx=0;entryDy=0;" parent="1" source="7JG3coMox9IUpOKtM1Zi-22" target="WVOs3mUSCt7fYlh-w1K5-11" edge="1">
          <mxGeometry width="50" height="50" relative="1" as="geometry">
            <mxPoint x="990" y="4360" as="sourcePoint" />
            <mxPoint x="1040" y="4310" as="targetPoint" />
          </mxGeometry>
        </mxCell>
        <mxCell id="7JG3coMox9IUpOKtM1Zi-72" value="" style="endArrow=none;html=1;rounded=0;exitX=0.088;exitY=0.015;exitDx=0;exitDy=0;exitPerimeter=0;entryX=0.718;entryY=0.932;entryDx=0;entryDy=0;entryPerimeter=0;" parent="1" source="7JG3coMox9IUpOKtM1Zi-2" target="7JG3coMox9IUpOKtM1Zi-23" edge="1">
          <mxGeometry width="50" height="50" relative="1" as="geometry">
            <mxPoint x="880" y="4360" as="sourcePoint" />
            <mxPoint x="930" y="4310" as="targetPoint" />
          </mxGeometry>
        </mxCell>
        <mxCell id="7JG3coMox9IUpOKtM1Zi-73" value="" style="endArrow=none;html=1;rounded=0;exitX=0.282;exitY=0.005;exitDx=0;exitDy=0;exitPerimeter=0;" parent="1" source="7JG3coMox9IUpOKtM1Zi-2" target="7JG3coMox9IUpOKtM1Zi-25" edge="1">
          <mxGeometry width="50" height="50" relative="1" as="geometry">
            <mxPoint x="857" y="4424" as="sourcePoint" />
            <mxPoint x="823" y="4410" as="targetPoint" />
          </mxGeometry>
        </mxCell>
        <mxCell id="7JG3coMox9IUpOKtM1Zi-74" value="" style="endArrow=none;html=1;rounded=0;exitX=0.5;exitY=0;exitDx=0;exitDy=0;entryX=0.323;entryY=0.964;entryDx=0;entryDy=0;entryPerimeter=0;" parent="1" source="7JG3coMox9IUpOKtM1Zi-2" target="7JG3coMox9IUpOKtM1Zi-26" edge="1">
          <mxGeometry width="50" height="50" relative="1" as="geometry">
            <mxPoint x="849" y="4450" as="sourcePoint" />
            <mxPoint x="849" y="4403" as="targetPoint" />
          </mxGeometry>
        </mxCell>
        <mxCell id="7JG3coMox9IUpOKtM1Zi-75" value="" style="endArrow=none;html=1;rounded=0;exitX=0.812;exitY=0.025;exitDx=0;exitDy=0;exitPerimeter=0;" parent="1" source="7JG3coMox9IUpOKtM1Zi-2" target="7JG3coMox9IUpOKtM1Zi-24" edge="1">
          <mxGeometry width="50" height="50" relative="1" as="geometry">
            <mxPoint x="875" y="4450" as="sourcePoint" />
            <mxPoint x="921" y="4398" as="targetPoint" />
          </mxGeometry>
        </mxCell>
        <mxCell id="7JG3coMox9IUpOKtM1Zi-76" value="" style="endArrow=none;html=1;rounded=0;exitX=0.962;exitY=0.255;exitDx=0;exitDy=0;exitPerimeter=0;entryX=-0.002;entryY=0.903;entryDx=0;entryDy=0;entryPerimeter=0;" parent="1" source="7JG3coMox9IUpOKtM1Zi-7" target="WVOs3mUSCt7fYlh-w1K5-7" edge="1">
          <mxGeometry width="50" height="50" relative="1" as="geometry">
            <mxPoint x="780" y="4670" as="sourcePoint" />
            <mxPoint x="781" y="4620" as="targetPoint" />
          </mxGeometry>
        </mxCell>
        <mxCell id="7JG3coMox9IUpOKtM1Zi-77" value="" style="endArrow=none;html=1;rounded=0;exitX=0.558;exitY=0.025;exitDx=0;exitDy=0;exitPerimeter=0;entryX=0.139;entryY=1.026;entryDx=0;entryDy=0;entryPerimeter=0;" parent="1" source="7JG3coMox9IUpOKtM1Zi-8" target="WVOs3mUSCt7fYlh-w1K5-7" edge="1">
          <mxGeometry width="50" height="50" relative="1" as="geometry">
            <mxPoint x="757" y="4673" as="sourcePoint" />
            <mxPoint x="810" y="4636" as="targetPoint" />
          </mxGeometry>
        </mxCell>
        <mxCell id="7JG3coMox9IUpOKtM1Zi-78" value="" style="endArrow=none;html=1;rounded=0;exitX=0.373;exitY=0.025;exitDx=0;exitDy=0;exitPerimeter=0;entryX=0.454;entryY=0.988;entryDx=0;entryDy=0;entryPerimeter=0;" parent="1" source="7JG3coMox9IUpOKtM1Zi-9" target="WVOs3mUSCt7fYlh-w1K5-7" edge="1">
          <mxGeometry width="50" height="50" relative="1" as="geometry">
            <mxPoint x="795" y="4691" as="sourcePoint" />
            <mxPoint x="827" y="4641" as="targetPoint" />
          </mxGeometry>
        </mxCell>
        <mxCell id="7JG3coMox9IUpOKtM1Zi-79" value="" style="endArrow=none;html=1;rounded=0;entryX=0.75;entryY=1;entryDx=0;entryDy=0;" parent="1" source="7JG3coMox9IUpOKtM1Zi-10" target="WVOs3mUSCt7fYlh-w1K5-7" edge="1">
          <mxGeometry width="50" height="50" relative="1" as="geometry">
            <mxPoint x="865" y="4691" as="sourcePoint" />
            <mxPoint x="864" y="4640" as="targetPoint" />
          </mxGeometry>
        </mxCell>
        <mxCell id="7JG3coMox9IUpOKtM1Zi-80" value="" style="endArrow=none;html=1;rounded=0;entryX=0.992;entryY=0.611;entryDx=0;entryDy=0;exitX=0.096;exitY=0.179;exitDx=0;exitDy=0;exitPerimeter=0;entryPerimeter=0;" parent="1" source="7JG3coMox9IUpOKtM1Zi-11" target="WVOs3mUSCt7fYlh-w1K5-7" edge="1">
          <mxGeometry width="50" height="50" relative="1" as="geometry">
            <mxPoint x="958.5" y="4650" as="sourcePoint" />
            <mxPoint x="921.5" y="4616" as="targetPoint" />
          </mxGeometry>
        </mxCell>
        <mxCell id="7JG3coMox9IUpOKtM1Zi-82" value="" style="endArrow=none;html=1;rounded=0;entryX=1;entryY=0.5;entryDx=0;entryDy=0;exitX=0.006;exitY=0.591;exitDx=0;exitDy=0;exitPerimeter=0;" parent="1" source="7JG3coMox9IUpOKtM1Zi-12" target="WVOs3mUSCt7fYlh-w1K5-7" edge="1">
          <mxGeometry width="50" height="50" relative="1" as="geometry">
            <mxPoint x="996.5" y="4623" as="sourcePoint" />
            <mxPoint x="930" y="4600" as="targetPoint" />
          </mxGeometry>
        </mxCell>
        <mxCell id="7JG3coMox9IUpOKtM1Zi-83" value="Username" style="ellipse;whiteSpace=wrap;html=1;" parent="1" vertex="1">
          <mxGeometry x="340" y="3580" width="80" height="50" as="geometry" />
        </mxCell>
        <mxCell id="7JG3coMox9IUpOKtM1Zi-84" value="Password" style="ellipse;whiteSpace=wrap;html=1;" parent="1" vertex="1">
          <mxGeometry x="435" y="3580" width="80" height="50" as="geometry" />
        </mxCell>
        <mxCell id="7JG3coMox9IUpOKtM1Zi-85" value="" style="endArrow=none;html=1;rounded=0;entryX=0.567;entryY=1.02;entryDx=0;entryDy=0;entryPerimeter=0;exitX=0.25;exitY=0;exitDx=0;exitDy=0;" parent="1" source="WVOs3mUSCt7fYlh-w1K5-2" target="7JG3coMox9IUpOKtM1Zi-83" edge="1">
          <mxGeometry width="50" height="50" relative="1" as="geometry">
            <mxPoint x="610" y="3850" as="sourcePoint" />
            <mxPoint x="660" y="3800" as="targetPoint" />
          </mxGeometry>
        </mxCell>
        <mxCell id="7JG3coMox9IUpOKtM1Zi-86" value="" style="endArrow=none;html=1;rounded=0;entryX=0.5;entryY=0;entryDx=0;entryDy=0;exitX=0.563;exitY=1.007;exitDx=0;exitDy=0;exitPerimeter=0;" parent="1" source="7JG3coMox9IUpOKtM1Zi-84" target="WVOs3mUSCt7fYlh-w1K5-2" edge="1">
          <mxGeometry width="50" height="50" relative="1" as="geometry">
            <mxPoint x="425" y="3690" as="sourcePoint" />
            <mxPoint x="395" y="3641" as="targetPoint" />
          </mxGeometry>
        </mxCell>
        <mxCell id="7JG3coMox9IUpOKtM1Zi-87" value="" style="endArrow=none;html=1;rounded=0;entryX=0.317;entryY=0.146;entryDx=0;entryDy=0;entryPerimeter=0;" parent="1" edge="1">
          <mxGeometry width="50" height="50" relative="1" as="geometry">
            <mxPoint x="894.64" y="4039.16" as="sourcePoint" />
            <mxPoint x="1080.0000000000002" y="4040.84" as="targetPoint" />
          </mxGeometry>
        </mxCell>
        <mxCell id="7JG3coMox9IUpOKtM1Zi-88" value="" style="endArrow=none;html=1;rounded=0;exitX=1;exitY=1;exitDx=0;exitDy=0;" parent="1" edge="1">
          <mxGeometry width="50" height="50" relative="1" as="geometry">
            <mxPoint x="910" y="4129.73" as="sourcePoint" />
            <mxPoint x="1100" y="4130" as="targetPoint" />
          </mxGeometry>
        </mxCell>
        <mxCell id="7JG3coMox9IUpOKtM1Zi-89" value="" style="endArrow=none;html=1;rounded=0;exitX=1;exitY=1;exitDx=0;exitDy=0;" parent="1" edge="1">
          <mxGeometry width="50" height="50" relative="1" as="geometry">
            <mxPoint x="910" y="4299.459999999999" as="sourcePoint" />
            <mxPoint x="1120" y="4300" as="targetPoint" />
          </mxGeometry>
        </mxCell>
        <mxCell id="7JG3coMox9IUpOKtM1Zi-90" value="" style="endArrow=none;html=1;rounded=0;exitX=1;exitY=1;exitDx=0;exitDy=0;" parent="1" edge="1">
          <mxGeometry width="50" height="50" relative="1" as="geometry">
            <mxPoint x="925" y="4469.999999999999" as="sourcePoint" />
            <mxPoint x="1140" y="4470" as="targetPoint" />
          </mxGeometry>
        </mxCell>
        <mxCell id="7JG3coMox9IUpOKtM1Zi-91" value="" style="endArrow=none;html=1;rounded=0;entryX=0;entryY=1;entryDx=0;entryDy=0;" parent="1" target="WVOs3mUSCt7fYlh-w1K5-14" edge="1">
          <mxGeometry width="50" height="50" relative="1" as="geometry">
            <mxPoint x="1100" y="4130" as="sourcePoint" />
            <mxPoint x="1220" y="4160" as="targetPoint" />
          </mxGeometry>
        </mxCell>
        <mxCell id="7JG3coMox9IUpOKtM1Zi-92" value="" style="endArrow=none;html=1;rounded=0;entryX=0;entryY=1;entryDx=0;entryDy=0;" parent="1" source="WVOs3mUSCt7fYlh-w1K5-14" edge="1">
          <mxGeometry width="50" height="50" relative="1" as="geometry">
            <mxPoint x="1120" y="4300" as="sourcePoint" />
            <mxPoint x="1119.62" y="4040" as="targetPoint" />
          </mxGeometry>
        </mxCell>
        <mxCell id="7JG3coMox9IUpOKtM1Zi-93" value="" style="endArrow=none;html=1;rounded=0;entryX=0;entryY=1;entryDx=0;entryDy=0;" parent="1" edge="1">
          <mxGeometry width="50" height="50" relative="1" as="geometry">
            <mxPoint x="1140" y="4470" as="sourcePoint" />
            <mxPoint x="1140" y="4020" as="targetPoint" />
          </mxGeometry>
        </mxCell>
        <mxCell id="7JG3coMox9IUpOKtM1Zi-94" value="" style="endArrow=none;html=1;rounded=0;" parent="1" edge="1">
          <mxGeometry width="50" height="50" relative="1" as="geometry">
            <mxPoint x="945" y="3829.64" as="sourcePoint" />
            <mxPoint x="1120" y="3829" as="targetPoint" />
          </mxGeometry>
        </mxCell>
        <mxCell id="7JG3coMox9IUpOKtM1Zi-95" value="" style="endArrow=none;html=1;rounded=0;entryX=0;entryY=1;entryDx=0;entryDy=0;exitX=0.5;exitY=0;exitDx=0;exitDy=0;" parent="1" source="WVOs3mUSCt7fYlh-w1K5-14" edge="1">
          <mxGeometry width="50" height="50" relative="1" as="geometry">
            <mxPoint x="1119.47" y="3940" as="sourcePoint" />
            <mxPoint x="1119.47" y="3830" as="targetPoint" />
          </mxGeometry>
        </mxCell>
        <mxCell id="7JG3coMox9IUpOKtM1Zi-97" value="" style="endArrow=none;html=1;rounded=0;exitX=1;exitY=1;exitDx=0;exitDy=0;" parent="1" edge="1">
          <mxGeometry width="50" height="50" relative="1" as="geometry">
            <mxPoint x="912.5" y="4589.999999999999" as="sourcePoint" />
            <mxPoint x="1160" y="4590" as="targetPoint" />
          </mxGeometry>
        </mxCell>
        <mxCell id="7JG3coMox9IUpOKtM1Zi-98" value="" style="endArrow=none;html=1;rounded=0;entryX=0.95;entryY=0.554;entryDx=0;entryDy=0;entryPerimeter=0;" parent="1" target="WVOs3mUSCt7fYlh-w1K5-14" edge="1">
          <mxGeometry width="50" height="50" relative="1" as="geometry">
            <mxPoint x="1160" y="4590" as="sourcePoint" />
            <mxPoint x="1150" y="4010" as="targetPoint" />
          </mxGeometry>
        </mxCell>
        <mxCell id="7JG3coMox9IUpOKtM1Zi-99" value="Takes" style="rhombus;whiteSpace=wrap;html=1;" parent="1" vertex="1">
          <mxGeometry x="1180" y="3940" width="80" height="80" as="geometry" />
        </mxCell>
        <mxCell id="7JG3coMox9IUpOKtM1Zi-100" value="" style="endArrow=none;html=1;rounded=0;entryX=0.5;entryY=1;entryDx=0;entryDy=0;" parent="1" target="WVOs3mUSCt7fYlh-w1K5-14" edge="1">
          <mxGeometry width="50" height="50" relative="1" as="geometry">
            <mxPoint x="1120" y="4300" as="sourcePoint" />
            <mxPoint x="1119.62" y="4040" as="targetPoint" />
          </mxGeometry>
        </mxCell>
        <mxCell id="WVOs3mUSCt7fYlh-w1K5-14" value="View" style="rhombus;whiteSpace=wrap;html=1;" parent="1" vertex="1">
          <mxGeometry x="1080" y="4000" width="80" height="80" as="geometry" />
        </mxCell>
        <mxCell id="7JG3coMox9IUpOKtM1Zi-101" value="" style="endArrow=none;html=1;rounded=0;entryX=0.702;entryY=1.018;entryDx=0;entryDy=0;entryPerimeter=0;" parent="1" target="WVOs3mUSCt7fYlh-w1K5-13" edge="1">
          <mxGeometry width="50" height="50" relative="1" as="geometry">
            <mxPoint x="893.96" y="4040" as="sourcePoint" />
            <mxPoint x="890" y="4000" as="targetPoint" />
          </mxGeometry>
        </mxCell>
        <mxCell id="7JG3coMox9IUpOKtM1Zi-102" value="" style="endArrow=none;html=1;rounded=0;entryX=0;entryY=0.5;entryDx=0;entryDy=0;" parent="1" target="7JG3coMox9IUpOKtM1Zi-99" edge="1">
          <mxGeometry width="50" height="50" relative="1" as="geometry">
            <mxPoint x="930" y="3979.16" as="sourcePoint" />
            <mxPoint x="1115.3600000000001" y="3980.84" as="targetPoint" />
          </mxGeometry>
        </mxCell>
        <mxCell id="7JG3coMox9IUpOKtM1Zi-103" value="" style="endArrow=none;html=1;rounded=0;" parent="1" edge="1">
          <mxGeometry width="50" height="50" relative="1" as="geometry">
            <mxPoint x="1222" y="4600" as="sourcePoint" />
            <mxPoint x="1220" y="4020" as="targetPoint" />
          </mxGeometry>
        </mxCell>
        <mxCell id="7JG3coMox9IUpOKtM1Zi-104" value="" style="endArrow=none;html=1;rounded=0;exitX=1;exitY=1;exitDx=0;exitDy=0;" parent="1" edge="1">
          <mxGeometry width="50" height="50" relative="1" as="geometry">
            <mxPoint x="920" y="4599.349999999999" as="sourcePoint" />
            <mxPoint x="1220" y="4600" as="targetPoint" />
          </mxGeometry>
        </mxCell>
        <mxCell id="7JG3coMox9IUpOKtM1Zi-105" value="1" style="text;html=1;align=center;verticalAlign=middle;resizable=0;points=[];autosize=1;strokeColor=none;fillColor=none;" parent="1" vertex="1">
          <mxGeometry x="515" y="3668" width="30" height="30" as="geometry" />
        </mxCell>
        <mxCell id="7JG3coMox9IUpOKtM1Zi-106" value="M" style="text;html=1;align=center;verticalAlign=middle;resizable=0;points=[];autosize=1;strokeColor=none;fillColor=none;" parent="1" vertex="1">
          <mxGeometry x="605" y="3768" width="30" height="30" as="geometry" />
        </mxCell>
        <mxCell id="7JG3coMox9IUpOKtM1Zi-108" value="1" style="text;html=1;align=center;verticalAlign=middle;resizable=0;points=[];autosize=1;strokeColor=none;fillColor=none;" parent="1" vertex="1">
          <mxGeometry x="325" y="3738" width="30" height="30" as="geometry" />
        </mxCell>
        <mxCell id="7JG3coMox9IUpOKtM1Zi-109" value="M" style="text;html=1;align=center;verticalAlign=middle;resizable=0;points=[];autosize=1;strokeColor=none;fillColor=none;" parent="1" vertex="1">
          <mxGeometry x="325" y="4248" width="30" height="30" as="geometry" />
        </mxCell>
        <mxCell id="7JG3coMox9IUpOKtM1Zi-110" value="1" style="text;html=1;align=center;verticalAlign=middle;resizable=0;points=[];autosize=1;strokeColor=none;fillColor=none;" parent="1" vertex="1">
          <mxGeometry x="425" y="3768" width="30" height="30" as="geometry" />
        </mxCell>
        <mxCell id="7JG3coMox9IUpOKtM1Zi-112" value="M" style="text;html=1;align=center;verticalAlign=middle;resizable=0;points=[];autosize=1;strokeColor=none;fillColor=none;" parent="1" vertex="1">
          <mxGeometry x="425" y="3918" width="30" height="30" as="geometry" />
        </mxCell>
        <mxCell id="7JG3coMox9IUpOKtM1Zi-113" value="" style="endArrow=none;html=1;rounded=0;" parent="1" edge="1">
          <mxGeometry width="50" height="50" relative="1" as="geometry">
            <mxPoint x="490" y="3950" as="sourcePoint" />
            <mxPoint x="490" y="3870" as="targetPoint" />
          </mxGeometry>
        </mxCell>
        <mxCell id="7JG3coMox9IUpOKtM1Zi-114" value="1" style="text;html=1;align=center;verticalAlign=middle;resizable=0;points=[];autosize=1;strokeColor=none;fillColor=none;" parent="1" vertex="1">
          <mxGeometry x="485" y="3898" width="30" height="30" as="geometry" />
        </mxCell>
        <mxCell id="7JG3coMox9IUpOKtM1Zi-116" value="M" style="text;html=1;align=center;verticalAlign=middle;resizable=0;points=[];autosize=1;strokeColor=none;fillColor=none;" parent="1" vertex="1">
          <mxGeometry x="730" y="3820" width="30" height="30" as="geometry" />
        </mxCell>
        <mxCell id="7JG3coMox9IUpOKtM1Zi-117" value="1" style="text;html=1;align=center;verticalAlign=middle;resizable=0;points=[];autosize=1;strokeColor=none;fillColor=none;" parent="1" vertex="1">
          <mxGeometry x="535" y="3955" width="30" height="30" as="geometry" />
        </mxCell>
        <mxCell id="7JG3coMox9IUpOKtM1Zi-118" value="M" style="text;html=1;align=center;verticalAlign=middle;resizable=0;points=[];autosize=1;strokeColor=none;fillColor=none;" parent="1" vertex="1">
          <mxGeometry x="725" y="3955" width="30" height="30" as="geometry" />
        </mxCell>
        <mxCell id="7JG3coMox9IUpOKtM1Zi-119" value="1" style="text;html=1;align=center;verticalAlign=middle;resizable=0;points=[];autosize=1;strokeColor=none;fillColor=none;" parent="1" vertex="1">
          <mxGeometry x="535" y="4100" width="30" height="30" as="geometry" />
        </mxCell>
        <mxCell id="7JG3coMox9IUpOKtM1Zi-120" value="M" style="text;html=1;align=center;verticalAlign=middle;resizable=0;points=[];autosize=1;strokeColor=none;fillColor=none;" parent="1" vertex="1">
          <mxGeometry x="715" y="4100" width="30" height="30" as="geometry" />
        </mxCell>
        <mxCell id="7JG3coMox9IUpOKtM1Zi-121" value="1" style="text;html=1;align=center;verticalAlign=middle;resizable=0;points=[];autosize=1;strokeColor=none;fillColor=none;" parent="1" vertex="1">
          <mxGeometry x="530" y="4250" width="30" height="30" as="geometry" />
        </mxCell>
        <mxCell id="7JG3coMox9IUpOKtM1Zi-122" value="1" style="text;html=1;align=center;verticalAlign=middle;resizable=0;points=[];autosize=1;strokeColor=none;fillColor=none;" parent="1" vertex="1">
          <mxGeometry x="525" y="4420" width="30" height="30" as="geometry" />
        </mxCell>
        <mxCell id="7JG3coMox9IUpOKtM1Zi-123" value="1" style="text;html=1;align=center;verticalAlign=middle;resizable=0;points=[];autosize=1;strokeColor=none;fillColor=none;" parent="1" vertex="1">
          <mxGeometry x="530" y="4520" width="30" height="30" as="geometry" />
        </mxCell>
        <mxCell id="7JG3coMox9IUpOKtM1Zi-124" value="M" style="text;html=1;align=center;verticalAlign=middle;resizable=0;points=[];autosize=1;strokeColor=none;fillColor=none;" parent="1" vertex="1">
          <mxGeometry x="690" y="4260" width="30" height="30" as="geometry" />
        </mxCell>
        <mxCell id="7JG3coMox9IUpOKtM1Zi-126" value="M" style="text;html=1;align=center;verticalAlign=middle;resizable=0;points=[];autosize=1;strokeColor=none;fillColor=none;" parent="1" vertex="1">
          <mxGeometry x="690" y="4420" width="30" height="30" as="geometry" />
        </mxCell>
        <mxCell id="7JG3coMox9IUpOKtM1Zi-127" value="M" style="text;html=1;align=center;verticalAlign=middle;resizable=0;points=[];autosize=1;strokeColor=none;fillColor=none;" parent="1" vertex="1">
          <mxGeometry x="720" y="4530" width="30" height="30" as="geometry" />
        </mxCell>
        <mxCell id="7JG3coMox9IUpOKtM1Zi-128" value="M" style="text;html=1;align=center;verticalAlign=middle;resizable=0;points=[];autosize=1;strokeColor=none;fillColor=none;" parent="1" vertex="1">
          <mxGeometry x="1080" y="4560" width="30" height="30" as="geometry" />
        </mxCell>
        <mxCell id="7JG3coMox9IUpOKtM1Zi-129" value="1" style="text;html=1;align=center;verticalAlign=middle;resizable=0;points=[];autosize=1;strokeColor=none;fillColor=none;" parent="1" vertex="1">
          <mxGeometry x="1180" y="4570" width="30" height="30" as="geometry" />
        </mxCell>
        <mxCell id="7JG3coMox9IUpOKtM1Zi-130" value="M" style="text;html=1;align=center;verticalAlign=middle;resizable=0;points=[];autosize=1;strokeColor=none;fillColor=none;" parent="1" vertex="1">
          <mxGeometry x="1020" y="4100" width="30" height="30" as="geometry" />
        </mxCell>
        <mxCell id="7JG3coMox9IUpOKtM1Zi-131" value="M" style="text;html=1;align=center;verticalAlign=middle;resizable=0;points=[];autosize=1;strokeColor=none;fillColor=none;" parent="1" vertex="1">
          <mxGeometry x="1045" y="4265" width="30" height="30" as="geometry" />
        </mxCell>
        <mxCell id="7JG3coMox9IUpOKtM1Zi-132" value="M" style="text;html=1;align=center;verticalAlign=middle;resizable=0;points=[];autosize=1;strokeColor=none;fillColor=none;" parent="1" vertex="1">
          <mxGeometry x="1050" y="4435" width="30" height="30" as="geometry" />
        </mxCell>
        <mxCell id="7JG3coMox9IUpOKtM1Zi-133" value="M" style="text;html=1;align=center;verticalAlign=middle;resizable=0;points=[];autosize=1;strokeColor=none;fillColor=none;" parent="1" vertex="1">
          <mxGeometry x="1020" y="4010" width="30" height="30" as="geometry" />
        </mxCell>
        <mxCell id="7JG3coMox9IUpOKtM1Zi-134" value="M" style="text;html=1;align=center;verticalAlign=middle;resizable=0;points=[];autosize=1;strokeColor=none;fillColor=none;" parent="1" vertex="1">
          <mxGeometry x="1025" y="3950" width="30" height="30" as="geometry" />
        </mxCell>
        <mxCell id="7JG3coMox9IUpOKtM1Zi-135" value="M" style="text;html=1;align=center;verticalAlign=middle;resizable=0;points=[];autosize=1;strokeColor=none;fillColor=none;" parent="1" vertex="1">
          <mxGeometry x="1130" y="3880" width="30" height="30" as="geometry" />
        </mxCell>
        <mxCell id="OMbPgetIY6PZ39L2Q99x-1" value="" style="endArrow=none;html=1;rounded=0;entryX=0.097;entryY=0.762;entryDx=0;entryDy=0;entryPerimeter=0;" edge="1" parent="1" target="tTbxIWZ7TnJ0TmE4Gb5t-49">
          <mxGeometry width="50" height="50" relative="1" as="geometry">
            <mxPoint x="150" y="1640" as="sourcePoint" />
            <mxPoint x="205" y="1590" as="targetPoint" />
          </mxGeometry>
        </mxCell>
        <mxCell id="OMbPgetIY6PZ39L2Q99x-2" value="" style="endArrow=none;html=1;rounded=0;entryX=0.097;entryY=0.787;entryDx=0;entryDy=0;entryPerimeter=0;" edge="1" parent="1" target="tTbxIWZ7TnJ0TmE4Gb5t-50">
          <mxGeometry width="50" height="50" relative="1" as="geometry">
            <mxPoint x="150" y="1640" as="sourcePoint" />
            <mxPoint x="300" y="1420" as="targetPoint" />
          </mxGeometry>
        </mxCell>
        <mxCell id="OMbPgetIY6PZ39L2Q99x-3" value="" style="endArrow=none;html=1;rounded=0;entryX=0.039;entryY=0.697;entryDx=0;entryDy=0;entryPerimeter=0;" edge="1" parent="1" target="tTbxIWZ7TnJ0TmE4Gb5t-51">
          <mxGeometry width="50" height="50" relative="1" as="geometry">
            <mxPoint x="150" y="1640" as="sourcePoint" />
            <mxPoint x="300" y="1420" as="targetPoint" />
          </mxGeometry>
        </mxCell>
        <mxCell id="OMbPgetIY6PZ39L2Q99x-4" value="" style="endArrow=none;html=1;rounded=0;entryX=0.079;entryY=0.762;entryDx=0;entryDy=0;entryPerimeter=0;" edge="1" parent="1" target="tTbxIWZ7TnJ0TmE4Gb5t-52">
          <mxGeometry width="50" height="50" relative="1" as="geometry">
            <mxPoint x="150" y="1640" as="sourcePoint" />
            <mxPoint x="355" y="1482" as="targetPoint" />
          </mxGeometry>
        </mxCell>
        <mxCell id="OMbPgetIY6PZ39L2Q99x-5" value="" style="endArrow=none;html=1;rounded=0;entryX=0.038;entryY=0.672;entryDx=0;entryDy=0;entryPerimeter=0;" edge="1" parent="1" target="tTbxIWZ7TnJ0TmE4Gb5t-53">
          <mxGeometry width="50" height="50" relative="1" as="geometry">
            <mxPoint x="150" y="1640" as="sourcePoint" />
            <mxPoint x="360" y="1586" as="targetPoint" />
          </mxGeometry>
        </mxCell>
        <mxCell id="OMbPgetIY6PZ39L2Q99x-6" value="" style="endArrow=none;html=1;rounded=0;entryX=0.02;entryY=0.646;entryDx=0;entryDy=0;entryPerimeter=0;" edge="1" parent="1" target="tTbxIWZ7TnJ0TmE4Gb5t-54">
          <mxGeometry width="50" height="50" relative="1" as="geometry">
            <mxPoint x="150" y="1640" as="sourcePoint" />
            <mxPoint x="352" y="1640" as="targetPoint" />
          </mxGeometry>
        </mxCell>
        <mxCell id="OMbPgetIY6PZ39L2Q99x-7" value="" style="endArrow=none;html=1;rounded=0;entryX=0;entryY=0.5;entryDx=0;entryDy=0;" edge="1" parent="1" target="tTbxIWZ7TnJ0TmE4Gb5t-55">
          <mxGeometry width="50" height="50" relative="1" as="geometry">
            <mxPoint x="150" y="1640" as="sourcePoint" />
            <mxPoint x="350" y="1719" as="targetPoint" />
          </mxGeometry>
        </mxCell>
        <mxCell id="OMbPgetIY6PZ39L2Q99x-8" value="" style="endArrow=none;html=1;rounded=0;entryX=0;entryY=0.5;entryDx=0;entryDy=0;" edge="1" parent="1">
          <mxGeometry width="50" height="50" relative="1" as="geometry">
            <mxPoint x="150" y="1640" as="sourcePoint" />
            <mxPoint x="337.5" y="1860" as="targetPoint" />
          </mxGeometry>
        </mxCell>
        <mxCell id="OMbPgetIY6PZ39L2Q99x-9" value="" style="endArrow=none;html=1;rounded=0;entryX=0.02;entryY=0.313;entryDx=0;entryDy=0;entryPerimeter=0;" edge="1" parent="1" target="tTbxIWZ7TnJ0TmE4Gb5t-57">
          <mxGeometry width="50" height="50" relative="1" as="geometry">
            <mxPoint x="153" y="1640" as="sourcePoint" />
            <mxPoint x="340" y="1940" as="targetPoint" />
          </mxGeometry>
        </mxCell>
        <mxCell id="OMbPgetIY6PZ39L2Q99x-11" value="" style="endArrow=none;html=1;rounded=0;entryX=0.019;entryY=0.377;entryDx=0;entryDy=0;entryPerimeter=0;" edge="1" parent="1" target="tTbxIWZ7TnJ0TmE4Gb5t-58">
          <mxGeometry width="50" height="50" relative="1" as="geometry">
            <mxPoint x="150" y="1640" as="sourcePoint" />
            <mxPoint x="302.5" y="1959" as="targetPoint" />
          </mxGeometry>
        </mxCell>
      </root>
    </mxGraphModel>
  </diagram>
</mxfile>
